<?xml version="1.0" encoding="utf-8" standalone="no"?>
<!DOCTYPE svg PUBLIC "-//W3C//DTD SVG 1.1//EN"
  "http://www.w3.org/Graphics/SVG/1.1/DTD/svg11.dtd">
<svg xmlns:xlink="http://www.w3.org/1999/xlink" width="821.6875pt" height="549.7475pt" viewBox="0 0 821.6875 549.7475" xmlns="http://www.w3.org/2000/svg" version="1.1">
 <metadata>
  <rdf:RDF xmlns:dc="http://purl.org/dc/elements/1.1/" xmlns:cc="http://creativecommons.org/ns#" xmlns:rdf="http://www.w3.org/1999/02/22-rdf-syntax-ns#">
   <cc:Work>
    <dc:type rdf:resource="http://purl.org/dc/dcmitype/StillImage"/>
    <dc:date>2023-04-21T15:01:16.478814</dc:date>
    <dc:format>image/svg+xml</dc:format>
    <dc:creator>
     <cc:Agent>
      <dc:title>Matplotlib v3.7.1, https://matplotlib.org/</dc:title>
     </cc:Agent>
    </dc:creator>
   </cc:Work>
  </rdf:RDF>
 </metadata>
 <defs>
  <style type="text/css">*{stroke-linejoin: round; stroke-linecap: butt}</style>
 </defs>
 <g id="figure_1">
  <g id="patch_1">
   <path d="M 0 549.7475 
L 821.6875 549.7475 
L 821.6875 0 
L 0 0 
z
" style="fill: #ffffff"/>
  </g>
  <g id="axes_1">
   <g id="patch_2">
    <path d="M 33.2875 266.4 
L 388.378409 266.4 
L 388.378409 64.8 
L 33.2875 64.8 
z
" style="fill: #ffffff"/>
   </g>
   <g id="patch_3">
    <path d="M 49.427996 266.4 
L 62.340393 266.4 
L 62.340393 262.827907 
L 49.427996 262.827907 
z
" clip-path="url(#p5720f52d58)" style="fill: #ff0000; opacity: 0.3"/>
   </g>
   <g id="patch_4">
    <path d="M 62.340393 266.4 
L 75.252789 266.4 
L 75.252789 261.934884 
L 62.340393 261.934884 
z
" clip-path="url(#p5720f52d58)" style="fill: #ff0000; opacity: 0.3"/>
   </g>
   <g id="patch_5">
    <path d="M 75.252789 266.4 
L 88.165186 266.4 
L 88.165186 253.897674 
L 75.252789 253.897674 
z
" clip-path="url(#p5720f52d58)" style="fill: #ff0000; opacity: 0.3"/>
   </g>
   <g id="patch_6">
    <path d="M 88.165186 266.4 
L 101.077583 266.4 
L 101.077583 245.860465 
L 88.165186 245.860465 
z
" clip-path="url(#p5720f52d58)" style="fill: #ff0000; opacity: 0.3"/>
   </g>
   <g id="patch_7">
    <path d="M 101.077583 266.4 
L 113.989979 266.4 
L 113.989979 216.390698 
L 101.077583 216.390698 
z
" clip-path="url(#p5720f52d58)" style="fill: #ff0000; opacity: 0.3"/>
   </g>
   <g id="patch_8">
    <path d="M 113.989979 266.4 
L 126.902376 266.4 
L 126.902376 189.6 
L 113.989979 189.6 
z
" clip-path="url(#p5720f52d58)" style="fill: #ff0000; opacity: 0.3"/>
   </g>
   <g id="patch_9">
    <path d="M 126.902376 266.4 
L 139.814773 266.4 
L 139.814773 150.306977 
L 126.902376 150.306977 
z
" clip-path="url(#p5720f52d58)" style="fill: #ff0000; opacity: 0.3"/>
   </g>
   <g id="patch_10">
    <path d="M 139.814773 266.4 
L 152.727169 266.4 
L 152.727169 95.832558 
L 139.814773 95.832558 
z
" clip-path="url(#p5720f52d58)" style="fill: #ff0000; opacity: 0.3"/>
   </g>
   <g id="patch_11">
    <path d="M 152.727169 266.4 
L 165.639566 266.4 
L 165.639566 104.762791 
L 152.727169 104.762791 
z
" clip-path="url(#p5720f52d58)" style="fill: #ff0000; opacity: 0.3"/>
   </g>
   <g id="patch_12">
    <path d="M 165.639566 266.4 
L 178.551963 266.4 
L 178.551963 74.4 
L 165.639566 74.4 
z
" clip-path="url(#p5720f52d58)" style="fill: #ff0000; opacity: 0.3"/>
   </g>
   <g id="patch_13">
    <path d="M 178.551963 266.4 
L 191.46436 266.4 
L 191.46436 76.186047 
L 178.551963 76.186047 
z
" clip-path="url(#p5720f52d58)" style="fill: #ff0000; opacity: 0.3"/>
   </g>
   <g id="patch_14">
    <path d="M 191.46436 266.4 
L 204.376756 266.4 
L 204.376756 88.688372 
L 191.46436 88.688372 
z
" clip-path="url(#p5720f52d58)" style="fill: #ff0000; opacity: 0.3"/>
   </g>
   <g id="patch_15">
    <path d="M 204.376756 266.4 
L 217.289153 266.4 
L 217.289153 94.046512 
L 204.376756 94.046512 
z
" clip-path="url(#p5720f52d58)" style="fill: #ff0000; opacity: 0.3"/>
   </g>
   <g id="patch_16">
    <path d="M 217.289153 266.4 
L 230.20155 266.4 
L 230.20155 153.87907 
L 217.289153 153.87907 
z
" clip-path="url(#p5720f52d58)" style="fill: #ff0000; opacity: 0.3"/>
   </g>
   <g id="patch_17">
    <path d="M 230.20155 266.4 
L 243.113946 266.4 
L 243.113946 188.706977 
L 230.20155 188.706977 
z
" clip-path="url(#p5720f52d58)" style="fill: #ff0000; opacity: 0.3"/>
   </g>
   <g id="patch_18">
    <path d="M 243.113946 266.4 
L 256.026343 266.4 
L 256.026343 208.353488 
L 243.113946 208.353488 
z
" clip-path="url(#p5720f52d58)" style="fill: #ff0000; opacity: 0.3"/>
   </g>
   <g id="patch_19">
    <path d="M 256.026343 266.4 
L 268.93874 266.4 
L 268.93874 225.32093 
L 256.026343 225.32093 
z
" clip-path="url(#p5720f52d58)" style="fill: #ff0000; opacity: 0.3"/>
   </g>
   <g id="patch_20">
    <path d="M 268.93874 266.4 
L 281.851136 266.4 
L 281.851136 234.251163 
L 268.93874 234.251163 
z
" clip-path="url(#p5720f52d58)" style="fill: #ff0000; opacity: 0.3"/>
   </g>
   <g id="patch_21">
    <path d="M 281.851136 266.4 
L 294.763533 266.4 
L 294.763533 249.432558 
L 281.851136 249.432558 
z
" clip-path="url(#p5720f52d58)" style="fill: #ff0000; opacity: 0.3"/>
   </g>
   <g id="patch_22">
    <path d="M 294.763533 266.4 
L 307.67593 266.4 
L 307.67593 257.469767 
L 294.763533 257.469767 
z
" clip-path="url(#p5720f52d58)" style="fill: #ff0000; opacity: 0.3"/>
   </g>
   <g id="patch_23">
    <path d="M 307.67593 266.4 
L 320.588326 266.4 
L 320.588326 261.934884 
L 307.67593 261.934884 
z
" clip-path="url(#p5720f52d58)" style="fill: #ff0000; opacity: 0.3"/>
   </g>
   <g id="patch_24">
    <path d="M 320.588326 266.4 
L 333.500723 266.4 
L 333.500723 265.506977 
L 320.588326 265.506977 
z
" clip-path="url(#p5720f52d58)" style="fill: #ff0000; opacity: 0.3"/>
   </g>
   <g id="patch_25">
    <path d="M 333.500723 266.4 
L 346.41312 266.4 
L 346.41312 266.4 
L 333.500723 266.4 
z
" clip-path="url(#p5720f52d58)" style="fill: #ff0000; opacity: 0.3"/>
   </g>
   <g id="patch_26">
    <path d="M 346.41312 266.4 
L 359.325517 266.4 
L 359.325517 265.506977 
L 346.41312 265.506977 
z
" clip-path="url(#p5720f52d58)" style="fill: #ff0000; opacity: 0.3"/>
   </g>
   <g id="patch_27">
    <path d="M 359.325517 266.4 
L 372.237913 266.4 
L 372.237913 264.613953 
L 359.325517 264.613953 
z
" clip-path="url(#p5720f52d58)" style="fill: #ff0000; opacity: 0.3"/>
   </g>
   <g id="matplotlib.axis_1">
    <g id="xtick_1">
     <g id="line2d_1">
      <defs>
       <path id="m2ce08bfe84" d="M 0 0 
L 0 3.5 
" style="stroke: #000000; stroke-width: 0.8"/>
      </defs>
      <g>
       <use xlink:href="#m2ce08bfe84" x="48.274635" y="266.4" style="stroke: #000000; stroke-width: 0.8"/>
      </g>
     </g>
     <g id="text_1">
      <!-- 0 -->
      <g transform="translate(45.093385 280.998437) scale(0.1 -0.1)">
       <defs>
        <path id="DejaVuSans-30" d="M 2034 4250 
Q 1547 4250 1301 3770 
Q 1056 3291 1056 2328 
Q 1056 1369 1301 889 
Q 1547 409 2034 409 
Q 2525 409 2770 889 
Q 3016 1369 3016 2328 
Q 3016 3291 2770 3770 
Q 2525 4250 2034 4250 
z
M 2034 4750 
Q 2819 4750 3233 4129 
Q 3647 3509 3647 2328 
Q 3647 1150 3233 529 
Q 2819 -91 2034 -91 
Q 1250 -91 836 529 
Q 422 1150 422 2328 
Q 422 3509 836 4129 
Q 1250 4750 2034 4750 
z
" transform="scale(0.015625)"/>
       </defs>
       <use xlink:href="#DejaVuSans-30"/>
      </g>
     </g>
    </g>
    <g id="xtick_2">
     <g id="line2d_2">
      <g>
       <use xlink:href="#m2ce08bfe84" x="112.953441" y="266.4" style="stroke: #000000; stroke-width: 0.8"/>
      </g>
     </g>
     <g id="text_2">
      <!-- 200 -->
      <g transform="translate(103.409691 280.998437) scale(0.1 -0.1)">
       <defs>
        <path id="DejaVuSans-32" d="M 1228 531 
L 3431 531 
L 3431 0 
L 469 0 
L 469 531 
Q 828 903 1448 1529 
Q 2069 2156 2228 2338 
Q 2531 2678 2651 2914 
Q 2772 3150 2772 3378 
Q 2772 3750 2511 3984 
Q 2250 4219 1831 4219 
Q 1534 4219 1204 4116 
Q 875 4013 500 3803 
L 500 4441 
Q 881 4594 1212 4672 
Q 1544 4750 1819 4750 
Q 2544 4750 2975 4387 
Q 3406 4025 3406 3419 
Q 3406 3131 3298 2873 
Q 3191 2616 2906 2266 
Q 2828 2175 2409 1742 
Q 1991 1309 1228 531 
z
" transform="scale(0.015625)"/>
       </defs>
       <use xlink:href="#DejaVuSans-32"/>
       <use xlink:href="#DejaVuSans-30" x="63.623047"/>
       <use xlink:href="#DejaVuSans-30" x="127.246094"/>
      </g>
     </g>
    </g>
    <g id="xtick_3">
     <g id="line2d_3">
      <g>
       <use xlink:href="#m2ce08bfe84" x="177.632247" y="266.4" style="stroke: #000000; stroke-width: 0.8"/>
      </g>
     </g>
     <g id="text_3">
      <!-- 400 -->
      <g transform="translate(168.088497 280.998437) scale(0.1 -0.1)">
       <defs>
        <path id="DejaVuSans-34" d="M 2419 4116 
L 825 1625 
L 2419 1625 
L 2419 4116 
z
M 2253 4666 
L 3047 4666 
L 3047 1625 
L 3713 1625 
L 3713 1100 
L 3047 1100 
L 3047 0 
L 2419 0 
L 2419 1100 
L 313 1100 
L 313 1709 
L 2253 4666 
z
" transform="scale(0.015625)"/>
       </defs>
       <use xlink:href="#DejaVuSans-34"/>
       <use xlink:href="#DejaVuSans-30" x="63.623047"/>
       <use xlink:href="#DejaVuSans-30" x="127.246094"/>
      </g>
     </g>
    </g>
    <g id="xtick_4">
     <g id="line2d_4">
      <g>
       <use xlink:href="#m2ce08bfe84" x="242.311053" y="266.4" style="stroke: #000000; stroke-width: 0.8"/>
      </g>
     </g>
     <g id="text_4">
      <!-- 600 -->
      <g transform="translate(232.767303 280.998437) scale(0.1 -0.1)">
       <defs>
        <path id="DejaVuSans-36" d="M 2113 2584 
Q 1688 2584 1439 2293 
Q 1191 2003 1191 1497 
Q 1191 994 1439 701 
Q 1688 409 2113 409 
Q 2538 409 2786 701 
Q 3034 994 3034 1497 
Q 3034 2003 2786 2293 
Q 2538 2584 2113 2584 
z
M 3366 4563 
L 3366 3988 
Q 3128 4100 2886 4159 
Q 2644 4219 2406 4219 
Q 1781 4219 1451 3797 
Q 1122 3375 1075 2522 
Q 1259 2794 1537 2939 
Q 1816 3084 2150 3084 
Q 2853 3084 3261 2657 
Q 3669 2231 3669 1497 
Q 3669 778 3244 343 
Q 2819 -91 2113 -91 
Q 1303 -91 875 529 
Q 447 1150 447 2328 
Q 447 3434 972 4092 
Q 1497 4750 2381 4750 
Q 2619 4750 2861 4703 
Q 3103 4656 3366 4563 
z
" transform="scale(0.015625)"/>
       </defs>
       <use xlink:href="#DejaVuSans-36"/>
       <use xlink:href="#DejaVuSans-30" x="63.623047"/>
       <use xlink:href="#DejaVuSans-30" x="127.246094"/>
      </g>
     </g>
    </g>
    <g id="xtick_5">
     <g id="line2d_5">
      <g>
       <use xlink:href="#m2ce08bfe84" x="306.989859" y="266.4" style="stroke: #000000; stroke-width: 0.8"/>
      </g>
     </g>
     <g id="text_5">
      <!-- 800 -->
      <g transform="translate(297.446109 280.998437) scale(0.1 -0.1)">
       <defs>
        <path id="DejaVuSans-38" d="M 2034 2216 
Q 1584 2216 1326 1975 
Q 1069 1734 1069 1313 
Q 1069 891 1326 650 
Q 1584 409 2034 409 
Q 2484 409 2743 651 
Q 3003 894 3003 1313 
Q 3003 1734 2745 1975 
Q 2488 2216 2034 2216 
z
M 1403 2484 
Q 997 2584 770 2862 
Q 544 3141 544 3541 
Q 544 4100 942 4425 
Q 1341 4750 2034 4750 
Q 2731 4750 3128 4425 
Q 3525 4100 3525 3541 
Q 3525 3141 3298 2862 
Q 3072 2584 2669 2484 
Q 3125 2378 3379 2068 
Q 3634 1759 3634 1313 
Q 3634 634 3220 271 
Q 2806 -91 2034 -91 
Q 1263 -91 848 271 
Q 434 634 434 1313 
Q 434 1759 690 2068 
Q 947 2378 1403 2484 
z
M 1172 3481 
Q 1172 3119 1398 2916 
Q 1625 2713 2034 2713 
Q 2441 2713 2670 2916 
Q 2900 3119 2900 3481 
Q 2900 3844 2670 4047 
Q 2441 4250 2034 4250 
Q 1625 4250 1398 4047 
Q 1172 3844 1172 3481 
z
" transform="scale(0.015625)"/>
       </defs>
       <use xlink:href="#DejaVuSans-38"/>
       <use xlink:href="#DejaVuSans-30" x="63.623047"/>
       <use xlink:href="#DejaVuSans-30" x="127.246094"/>
      </g>
     </g>
    </g>
    <g id="xtick_6">
     <g id="line2d_6">
      <g>
       <use xlink:href="#m2ce08bfe84" x="371.668665" y="266.4" style="stroke: #000000; stroke-width: 0.8"/>
      </g>
     </g>
     <g id="text_6">
      <!-- 1000 -->
      <g transform="translate(358.943665 280.998437) scale(0.1 -0.1)">
       <defs>
        <path id="DejaVuSans-31" d="M 794 531 
L 1825 531 
L 1825 4091 
L 703 3866 
L 703 4441 
L 1819 4666 
L 2450 4666 
L 2450 531 
L 3481 531 
L 3481 0 
L 794 0 
L 794 531 
z
" transform="scale(0.015625)"/>
       </defs>
       <use xlink:href="#DejaVuSans-31"/>
       <use xlink:href="#DejaVuSans-30" x="63.623047"/>
       <use xlink:href="#DejaVuSans-30" x="127.246094"/>
       <use xlink:href="#DejaVuSans-30" x="190.869141"/>
      </g>
     </g>
    </g>
    <g id="text_7">
     <!-- Metagenome size, Mb -->
     <g transform="translate(134.12608 297.715937) scale(0.14 -0.14)">
      <defs>
       <path id="DejaVuSans-4d" d="M 628 4666 
L 1569 4666 
L 2759 1491 
L 3956 4666 
L 4897 4666 
L 4897 0 
L 4281 0 
L 4281 4097 
L 3078 897 
L 2444 897 
L 1241 4097 
L 1241 0 
L 628 0 
L 628 4666 
z
" transform="scale(0.015625)"/>
       <path id="DejaVuSans-65" d="M 3597 1894 
L 3597 1613 
L 953 1613 
Q 991 1019 1311 708 
Q 1631 397 2203 397 
Q 2534 397 2845 478 
Q 3156 559 3463 722 
L 3463 178 
Q 3153 47 2828 -22 
Q 2503 -91 2169 -91 
Q 1331 -91 842 396 
Q 353 884 353 1716 
Q 353 2575 817 3079 
Q 1281 3584 2069 3584 
Q 2775 3584 3186 3129 
Q 3597 2675 3597 1894 
z
M 3022 2063 
Q 3016 2534 2758 2815 
Q 2500 3097 2075 3097 
Q 1594 3097 1305 2825 
Q 1016 2553 972 2059 
L 3022 2063 
z
" transform="scale(0.015625)"/>
       <path id="DejaVuSans-74" d="M 1172 4494 
L 1172 3500 
L 2356 3500 
L 2356 3053 
L 1172 3053 
L 1172 1153 
Q 1172 725 1289 603 
Q 1406 481 1766 481 
L 2356 481 
L 2356 0 
L 1766 0 
Q 1100 0 847 248 
Q 594 497 594 1153 
L 594 3053 
L 172 3053 
L 172 3500 
L 594 3500 
L 594 4494 
L 1172 4494 
z
" transform="scale(0.015625)"/>
       <path id="DejaVuSans-61" d="M 2194 1759 
Q 1497 1759 1228 1600 
Q 959 1441 959 1056 
Q 959 750 1161 570 
Q 1363 391 1709 391 
Q 2188 391 2477 730 
Q 2766 1069 2766 1631 
L 2766 1759 
L 2194 1759 
z
M 3341 1997 
L 3341 0 
L 2766 0 
L 2766 531 
Q 2569 213 2275 61 
Q 1981 -91 1556 -91 
Q 1019 -91 701 211 
Q 384 513 384 1019 
Q 384 1609 779 1909 
Q 1175 2209 1959 2209 
L 2766 2209 
L 2766 2266 
Q 2766 2663 2505 2880 
Q 2244 3097 1772 3097 
Q 1472 3097 1187 3025 
Q 903 2953 641 2809 
L 641 3341 
Q 956 3463 1253 3523 
Q 1550 3584 1831 3584 
Q 2591 3584 2966 3190 
Q 3341 2797 3341 1997 
z
" transform="scale(0.015625)"/>
       <path id="DejaVuSans-67" d="M 2906 1791 
Q 2906 2416 2648 2759 
Q 2391 3103 1925 3103 
Q 1463 3103 1205 2759 
Q 947 2416 947 1791 
Q 947 1169 1205 825 
Q 1463 481 1925 481 
Q 2391 481 2648 825 
Q 2906 1169 2906 1791 
z
M 3481 434 
Q 3481 -459 3084 -895 
Q 2688 -1331 1869 -1331 
Q 1566 -1331 1297 -1286 
Q 1028 -1241 775 -1147 
L 775 -588 
Q 1028 -725 1275 -790 
Q 1522 -856 1778 -856 
Q 2344 -856 2625 -561 
Q 2906 -266 2906 331 
L 2906 616 
Q 2728 306 2450 153 
Q 2172 0 1784 0 
Q 1141 0 747 490 
Q 353 981 353 1791 
Q 353 2603 747 3093 
Q 1141 3584 1784 3584 
Q 2172 3584 2450 3431 
Q 2728 3278 2906 2969 
L 2906 3500 
L 3481 3500 
L 3481 434 
z
" transform="scale(0.015625)"/>
       <path id="DejaVuSans-6e" d="M 3513 2113 
L 3513 0 
L 2938 0 
L 2938 2094 
Q 2938 2591 2744 2837 
Q 2550 3084 2163 3084 
Q 1697 3084 1428 2787 
Q 1159 2491 1159 1978 
L 1159 0 
L 581 0 
L 581 3500 
L 1159 3500 
L 1159 2956 
Q 1366 3272 1645 3428 
Q 1925 3584 2291 3584 
Q 2894 3584 3203 3211 
Q 3513 2838 3513 2113 
z
" transform="scale(0.015625)"/>
       <path id="DejaVuSans-6f" d="M 1959 3097 
Q 1497 3097 1228 2736 
Q 959 2375 959 1747 
Q 959 1119 1226 758 
Q 1494 397 1959 397 
Q 2419 397 2687 759 
Q 2956 1122 2956 1747 
Q 2956 2369 2687 2733 
Q 2419 3097 1959 3097 
z
M 1959 3584 
Q 2709 3584 3137 3096 
Q 3566 2609 3566 1747 
Q 3566 888 3137 398 
Q 2709 -91 1959 -91 
Q 1206 -91 779 398 
Q 353 888 353 1747 
Q 353 2609 779 3096 
Q 1206 3584 1959 3584 
z
" transform="scale(0.015625)"/>
       <path id="DejaVuSans-6d" d="M 3328 2828 
Q 3544 3216 3844 3400 
Q 4144 3584 4550 3584 
Q 5097 3584 5394 3201 
Q 5691 2819 5691 2113 
L 5691 0 
L 5113 0 
L 5113 2094 
Q 5113 2597 4934 2840 
Q 4756 3084 4391 3084 
Q 3944 3084 3684 2787 
Q 3425 2491 3425 1978 
L 3425 0 
L 2847 0 
L 2847 2094 
Q 2847 2600 2669 2842 
Q 2491 3084 2119 3084 
Q 1678 3084 1418 2786 
Q 1159 2488 1159 1978 
L 1159 0 
L 581 0 
L 581 3500 
L 1159 3500 
L 1159 2956 
Q 1356 3278 1631 3431 
Q 1906 3584 2284 3584 
Q 2666 3584 2933 3390 
Q 3200 3197 3328 2828 
z
" transform="scale(0.015625)"/>
       <path id="DejaVuSans-20" transform="scale(0.015625)"/>
       <path id="DejaVuSans-73" d="M 2834 3397 
L 2834 2853 
Q 2591 2978 2328 3040 
Q 2066 3103 1784 3103 
Q 1356 3103 1142 2972 
Q 928 2841 928 2578 
Q 928 2378 1081 2264 
Q 1234 2150 1697 2047 
L 1894 2003 
Q 2506 1872 2764 1633 
Q 3022 1394 3022 966 
Q 3022 478 2636 193 
Q 2250 -91 1575 -91 
Q 1294 -91 989 -36 
Q 684 19 347 128 
L 347 722 
Q 666 556 975 473 
Q 1284 391 1588 391 
Q 1994 391 2212 530 
Q 2431 669 2431 922 
Q 2431 1156 2273 1281 
Q 2116 1406 1581 1522 
L 1381 1569 
Q 847 1681 609 1914 
Q 372 2147 372 2553 
Q 372 3047 722 3315 
Q 1072 3584 1716 3584 
Q 2034 3584 2315 3537 
Q 2597 3491 2834 3397 
z
" transform="scale(0.015625)"/>
       <path id="DejaVuSans-69" d="M 603 3500 
L 1178 3500 
L 1178 0 
L 603 0 
L 603 3500 
z
M 603 4863 
L 1178 4863 
L 1178 4134 
L 603 4134 
L 603 4863 
z
" transform="scale(0.015625)"/>
       <path id="DejaVuSans-7a" d="M 353 3500 
L 3084 3500 
L 3084 2975 
L 922 459 
L 3084 459 
L 3084 0 
L 275 0 
L 275 525 
L 2438 3041 
L 353 3041 
L 353 3500 
z
" transform="scale(0.015625)"/>
       <path id="DejaVuSans-2c" d="M 750 794 
L 1409 794 
L 1409 256 
L 897 -744 
L 494 -744 
L 750 256 
L 750 794 
z
" transform="scale(0.015625)"/>
       <path id="DejaVuSans-62" d="M 3116 1747 
Q 3116 2381 2855 2742 
Q 2594 3103 2138 3103 
Q 1681 3103 1420 2742 
Q 1159 2381 1159 1747 
Q 1159 1113 1420 752 
Q 1681 391 2138 391 
Q 2594 391 2855 752 
Q 3116 1113 3116 1747 
z
M 1159 2969 
Q 1341 3281 1617 3432 
Q 1894 3584 2278 3584 
Q 2916 3584 3314 3078 
Q 3713 2572 3713 1747 
Q 3713 922 3314 415 
Q 2916 -91 2278 -91 
Q 1894 -91 1617 61 
Q 1341 213 1159 525 
L 1159 0 
L 581 0 
L 581 4863 
L 1159 4863 
L 1159 2969 
z
" transform="scale(0.015625)"/>
      </defs>
      <use xlink:href="#DejaVuSans-4d"/>
      <use xlink:href="#DejaVuSans-65" x="86.279297"/>
      <use xlink:href="#DejaVuSans-74" x="147.802734"/>
      <use xlink:href="#DejaVuSans-61" x="187.011719"/>
      <use xlink:href="#DejaVuSans-67" x="248.291016"/>
      <use xlink:href="#DejaVuSans-65" x="311.767578"/>
      <use xlink:href="#DejaVuSans-6e" x="373.291016"/>
      <use xlink:href="#DejaVuSans-6f" x="436.669922"/>
      <use xlink:href="#DejaVuSans-6d" x="497.851562"/>
      <use xlink:href="#DejaVuSans-65" x="595.263672"/>
      <use xlink:href="#DejaVuSans-20" x="656.787109"/>
      <use xlink:href="#DejaVuSans-73" x="688.574219"/>
      <use xlink:href="#DejaVuSans-69" x="740.673828"/>
      <use xlink:href="#DejaVuSans-7a" x="768.457031"/>
      <use xlink:href="#DejaVuSans-65" x="820.947266"/>
      <use xlink:href="#DejaVuSans-2c" x="882.470703"/>
      <use xlink:href="#DejaVuSans-20" x="914.257812"/>
      <use xlink:href="#DejaVuSans-4d" x="946.044922"/>
      <use xlink:href="#DejaVuSans-62" x="1032.324219"/>
     </g>
    </g>
   </g>
   <g id="matplotlib.axis_2">
    <g id="ytick_1">
     <g id="line2d_7">
      <defs>
       <path id="m1f23ba5ed3" d="M 0 0 
L -3.5 0 
" style="stroke: #000000; stroke-width: 0.8"/>
      </defs>
      <g>
       <use xlink:href="#m1f23ba5ed3" x="33.2875" y="266.4" style="stroke: #000000; stroke-width: 0.8"/>
      </g>
     </g>
     <g id="text_8">
      <!-- 0 -->
      <g transform="translate(19.925 270.199219) scale(0.1 -0.1)">
       <use xlink:href="#DejaVuSans-30"/>
      </g>
     </g>
    </g>
    <g id="ytick_2">
     <g id="line2d_8">
      <g>
       <use xlink:href="#m1f23ba5ed3" x="33.2875" y="221.748837" style="stroke: #000000; stroke-width: 0.8"/>
      </g>
     </g>
     <g id="text_9">
      <!-- 50 -->
      <g transform="translate(13.5625 225.548056) scale(0.1 -0.1)">
       <defs>
        <path id="DejaVuSans-35" d="M 691 4666 
L 3169 4666 
L 3169 4134 
L 1269 4134 
L 1269 2991 
Q 1406 3038 1543 3061 
Q 1681 3084 1819 3084 
Q 2600 3084 3056 2656 
Q 3513 2228 3513 1497 
Q 3513 744 3044 326 
Q 2575 -91 1722 -91 
Q 1428 -91 1123 -41 
Q 819 9 494 109 
L 494 744 
Q 775 591 1075 516 
Q 1375 441 1709 441 
Q 2250 441 2565 725 
Q 2881 1009 2881 1497 
Q 2881 1984 2565 2268 
Q 2250 2553 1709 2553 
Q 1456 2553 1204 2497 
Q 953 2441 691 2322 
L 691 4666 
z
" transform="scale(0.015625)"/>
       </defs>
       <use xlink:href="#DejaVuSans-35"/>
       <use xlink:href="#DejaVuSans-30" x="63.623047"/>
      </g>
     </g>
    </g>
    <g id="ytick_3">
     <g id="line2d_9">
      <g>
       <use xlink:href="#m1f23ba5ed3" x="33.2875" y="177.097674" style="stroke: #000000; stroke-width: 0.8"/>
      </g>
     </g>
     <g id="text_10">
      <!-- 100 -->
      <g transform="translate(7.2 180.896893) scale(0.1 -0.1)">
       <use xlink:href="#DejaVuSans-31"/>
       <use xlink:href="#DejaVuSans-30" x="63.623047"/>
       <use xlink:href="#DejaVuSans-30" x="127.246094"/>
      </g>
     </g>
    </g>
    <g id="ytick_4">
     <g id="line2d_10">
      <g>
       <use xlink:href="#m1f23ba5ed3" x="33.2875" y="132.446512" style="stroke: #000000; stroke-width: 0.8"/>
      </g>
     </g>
     <g id="text_11">
      <!-- 150 -->
      <g transform="translate(7.2 136.24573) scale(0.1 -0.1)">
       <use xlink:href="#DejaVuSans-31"/>
       <use xlink:href="#DejaVuSans-35" x="63.623047"/>
       <use xlink:href="#DejaVuSans-30" x="127.246094"/>
      </g>
     </g>
    </g>
    <g id="ytick_5">
     <g id="line2d_11">
      <g>
       <use xlink:href="#m1f23ba5ed3" x="33.2875" y="87.795349" style="stroke: #000000; stroke-width: 0.8"/>
      </g>
     </g>
     <g id="text_12">
      <!-- 200 -->
      <g transform="translate(7.2 91.594568) scale(0.1 -0.1)">
       <use xlink:href="#DejaVuSans-32"/>
       <use xlink:href="#DejaVuSans-30" x="63.623047"/>
       <use xlink:href="#DejaVuSans-30" x="127.246094"/>
      </g>
     </g>
    </g>
   </g>
   <g id="patch_28">
    <path d="M 33.2875 266.4 
L 33.2875 64.8 
" style="fill: none; stroke: #000000; stroke-width: 0.8; stroke-linejoin: miter; stroke-linecap: square"/>
   </g>
   <g id="patch_29">
    <path d="M 388.378409 266.4 
L 388.378409 64.8 
" style="fill: none; stroke: #000000; stroke-width: 0.8; stroke-linejoin: miter; stroke-linecap: square"/>
   </g>
   <g id="patch_30">
    <path d="M 33.2875 266.4 
L 388.378409 266.4 
" style="fill: none; stroke: #000000; stroke-width: 0.8; stroke-linejoin: miter; stroke-linecap: square"/>
   </g>
   <g id="patch_31">
    <path d="M 33.2875 64.8 
L 388.378409 64.8 
" style="fill: none; stroke: #000000; stroke-width: 0.8; stroke-linejoin: miter; stroke-linecap: square"/>
   </g>
   <g id="text_13">
    <!-- median = 410 -->
    <g transform="translate(274.650456 123.516279) scale(0.14 -0.14)">
     <defs>
      <path id="DejaVuSans-64" d="M 2906 2969 
L 2906 4863 
L 3481 4863 
L 3481 0 
L 2906 0 
L 2906 525 
Q 2725 213 2448 61 
Q 2172 -91 1784 -91 
Q 1150 -91 751 415 
Q 353 922 353 1747 
Q 353 2572 751 3078 
Q 1150 3584 1784 3584 
Q 2172 3584 2448 3432 
Q 2725 3281 2906 2969 
z
M 947 1747 
Q 947 1113 1208 752 
Q 1469 391 1925 391 
Q 2381 391 2643 752 
Q 2906 1113 2906 1747 
Q 2906 2381 2643 2742 
Q 2381 3103 1925 3103 
Q 1469 3103 1208 2742 
Q 947 2381 947 1747 
z
" transform="scale(0.015625)"/>
      <path id="DejaVuSans-3d" d="M 678 2906 
L 4684 2906 
L 4684 2381 
L 678 2381 
L 678 2906 
z
M 678 1631 
L 4684 1631 
L 4684 1100 
L 678 1100 
L 678 1631 
z
" transform="scale(0.015625)"/>
     </defs>
     <use xlink:href="#DejaVuSans-6d"/>
     <use xlink:href="#DejaVuSans-65" x="97.412109"/>
     <use xlink:href="#DejaVuSans-64" x="158.935547"/>
     <use xlink:href="#DejaVuSans-69" x="222.412109"/>
     <use xlink:href="#DejaVuSans-61" x="250.195312"/>
     <use xlink:href="#DejaVuSans-6e" x="311.474609"/>
     <use xlink:href="#DejaVuSans-20" x="374.853516"/>
     <use xlink:href="#DejaVuSans-3d" x="406.640625"/>
     <use xlink:href="#DejaVuSans-20" x="490.429688"/>
     <use xlink:href="#DejaVuSans-34" x="522.216797"/>
     <use xlink:href="#DejaVuSans-31" x="585.839844"/>
     <use xlink:href="#DejaVuSans-30" x="649.462891"/>
    </g>
   </g>
   <g id="legend_1">
    <g id="patch_32">
     <path d="M 241.693409 96.93875 
L 378.578409 96.93875 
Q 381.378409 96.93875 381.378409 94.13875 
L 381.378409 74.6 
Q 381.378409 71.8 378.578409 71.8 
L 241.693409 71.8 
Q 238.893409 71.8 238.893409 74.6 
L 238.893409 94.13875 
Q 238.893409 96.93875 241.693409 96.93875 
z
" style="fill: #ffffff; opacity: 0.8; stroke: #cccccc; stroke-linejoin: miter"/>
    </g>
    <g id="patch_33">
     <path d="M 244.493409 88.037812 
L 272.493409 88.037812 
L 272.493409 78.237812 
L 244.493409 78.237812 
z
" style="fill: #ff0000; opacity: 0.3"/>
    </g>
    <g id="text_14">
     <!-- total_bp, mln -->
     <g transform="translate(283.693409 88.037812) scale(0.14 -0.14)">
      <defs>
       <path id="DejaVuSans-6c" d="M 603 4863 
L 1178 4863 
L 1178 0 
L 603 0 
L 603 4863 
z
" transform="scale(0.015625)"/>
       <path id="DejaVuSans-5f" d="M 3263 -1063 
L 3263 -1509 
L -63 -1509 
L -63 -1063 
L 3263 -1063 
z
" transform="scale(0.015625)"/>
       <path id="DejaVuSans-70" d="M 1159 525 
L 1159 -1331 
L 581 -1331 
L 581 3500 
L 1159 3500 
L 1159 2969 
Q 1341 3281 1617 3432 
Q 1894 3584 2278 3584 
Q 2916 3584 3314 3078 
Q 3713 2572 3713 1747 
Q 3713 922 3314 415 
Q 2916 -91 2278 -91 
Q 1894 -91 1617 61 
Q 1341 213 1159 525 
z
M 3116 1747 
Q 3116 2381 2855 2742 
Q 2594 3103 2138 3103 
Q 1681 3103 1420 2742 
Q 1159 2381 1159 1747 
Q 1159 1113 1420 752 
Q 1681 391 2138 391 
Q 2594 391 2855 752 
Q 3116 1113 3116 1747 
z
" transform="scale(0.015625)"/>
      </defs>
      <use xlink:href="#DejaVuSans-74"/>
      <use xlink:href="#DejaVuSans-6f" x="39.208984"/>
      <use xlink:href="#DejaVuSans-74" x="100.390625"/>
      <use xlink:href="#DejaVuSans-61" x="139.599609"/>
      <use xlink:href="#DejaVuSans-6c" x="200.878906"/>
      <use xlink:href="#DejaVuSans-5f" x="228.662109"/>
      <use xlink:href="#DejaVuSans-62" x="278.662109"/>
      <use xlink:href="#DejaVuSans-70" x="342.138672"/>
      <use xlink:href="#DejaVuSans-2c" x="405.615234"/>
      <use xlink:href="#DejaVuSans-20" x="437.402344"/>
      <use xlink:href="#DejaVuSans-6d" x="469.189453"/>
      <use xlink:href="#DejaVuSans-6c" x="566.601562"/>
      <use xlink:href="#DejaVuSans-6e" x="594.384766"/>
     </g>
    </g>
   </g>
  </g>
  <g id="axes_2">
   <g id="patch_34">
    <path d="M 459.396591 266.4 
L 814.4875 266.4 
L 814.4875 64.8 
L 459.396591 64.8 
z
" style="fill: #ffffff"/>
   </g>
   <g id="patch_35">
    <path d="M 475.537087 266.4 
L 483.607335 266.4 
L 483.607335 257.572414 
L 475.537087 257.572414 
z
" clip-path="url(#p8e62352769)" style="fill: #80aa85; opacity: 0.6"/>
   </g>
   <g id="patch_36">
    <path d="M 483.607335 266.4 
L 491.677583 266.4 
L 491.677583 146.491954 
L 483.607335 146.491954 
z
" clip-path="url(#p8e62352769)" style="fill: #80aa85; opacity: 0.6"/>
   </g>
   <g id="patch_37">
    <path d="M 491.677583 266.4 
L 499.747831 266.4 
L 499.747831 74.4 
L 491.677583 74.4 
z
" clip-path="url(#p8e62352769)" style="fill: #80aa85; opacity: 0.6"/>
   </g>
   <g id="patch_38">
    <path d="M 499.747831 266.4 
L 507.818079 266.4 
L 507.818079 114.491954 
L 499.747831 114.491954 
z
" clip-path="url(#p8e62352769)" style="fill: #80aa85; opacity: 0.6"/>
   </g>
   <g id="patch_39">
    <path d="M 507.818079 266.4 
L 515.888326 266.4 
L 515.888326 173.710345 
L 507.818079 173.710345 
z
" clip-path="url(#p8e62352769)" style="fill: #80aa85; opacity: 0.6"/>
   </g>
   <g id="patch_40">
    <path d="M 515.888326 266.4 
L 523.958574 266.4 
L 523.958574 218.951724 
L 515.888326 218.951724 
z
" clip-path="url(#p8e62352769)" style="fill: #80aa85; opacity: 0.6"/>
   </g>
   <g id="patch_41">
    <path d="M 523.958574 266.4 
L 532.028822 266.4 
L 532.028822 232.193103 
L 523.958574 232.193103 
z
" clip-path="url(#p8e62352769)" style="fill: #80aa85; opacity: 0.6"/>
   </g>
   <g id="patch_42">
    <path d="M 532.028822 266.4 
L 540.09907 266.4 
L 540.09907 249.112644 
L 532.028822 249.112644 
z
" clip-path="url(#p8e62352769)" style="fill: #80aa85; opacity: 0.6"/>
   </g>
   <g id="patch_43">
    <path d="M 540.09907 266.4 
L 548.169318 266.4 
L 548.169318 254.629885 
L 540.09907 254.629885 
z
" clip-path="url(#p8e62352769)" style="fill: #80aa85; opacity: 0.6"/>
   </g>
   <g id="patch_44">
    <path d="M 548.169318 266.4 
L 556.239566 266.4 
L 556.239566 258.675862 
L 548.169318 258.675862 
z
" clip-path="url(#p8e62352769)" style="fill: #80aa85; opacity: 0.6"/>
   </g>
   <g id="patch_45">
    <path d="M 556.239566 266.4 
L 564.309814 266.4 
L 564.309814 260.514943 
L 556.239566 260.514943 
z
" clip-path="url(#p8e62352769)" style="fill: #80aa85; opacity: 0.6"/>
   </g>
   <g id="patch_46">
    <path d="M 564.309814 266.4 
L 572.380062 266.4 
L 572.380062 264.193103 
L 564.309814 264.193103 
z
" clip-path="url(#p8e62352769)" style="fill: #80aa85; opacity: 0.6"/>
   </g>
   <g id="patch_47">
    <path d="M 572.380062 266.4 
L 580.45031 266.4 
L 580.45031 264.193103 
L 572.380062 264.193103 
z
" clip-path="url(#p8e62352769)" style="fill: #80aa85; opacity: 0.6"/>
   </g>
   <g id="patch_48">
    <path d="M 580.45031 266.4 
L 588.520558 266.4 
L 588.520558 264.56092 
L 580.45031 264.56092 
z
" clip-path="url(#p8e62352769)" style="fill: #80aa85; opacity: 0.6"/>
   </g>
   <g id="patch_49">
    <path d="M 588.520558 266.4 
L 596.590806 266.4 
L 596.590806 264.56092 
L 588.520558 264.56092 
z
" clip-path="url(#p8e62352769)" style="fill: #80aa85; opacity: 0.6"/>
   </g>
   <g id="patch_50">
    <path d="M 596.590806 266.4 
L 604.661054 266.4 
L 604.661054 265.664368 
L 596.590806 265.664368 
z
" clip-path="url(#p8e62352769)" style="fill: #80aa85; opacity: 0.6"/>
   </g>
   <g id="patch_51">
    <path d="M 604.661054 266.4 
L 612.731302 266.4 
L 612.731302 266.032184 
L 604.661054 266.032184 
z
" clip-path="url(#p8e62352769)" style="fill: #80aa85; opacity: 0.6"/>
   </g>
   <g id="patch_52">
    <path d="M 612.731302 266.4 
L 620.80155 266.4 
L 620.80155 266.032184 
L 612.731302 266.032184 
z
" clip-path="url(#p8e62352769)" style="fill: #80aa85; opacity: 0.6"/>
   </g>
   <g id="patch_53">
    <path d="M 620.80155 266.4 
L 628.871798 266.4 
L 628.871798 266.032184 
L 620.80155 266.032184 
z
" clip-path="url(#p8e62352769)" style="fill: #80aa85; opacity: 0.6"/>
   </g>
   <g id="patch_54">
    <path d="M 628.871798 266.4 
L 636.942045 266.4 
L 636.942045 266.4 
L 628.871798 266.4 
z
" clip-path="url(#p8e62352769)" style="fill: #80aa85; opacity: 0.6"/>
   </g>
   <g id="patch_55">
    <path d="M 636.942045 266.4 
L 645.012293 266.4 
L 645.012293 265.296552 
L 636.942045 265.296552 
z
" clip-path="url(#p8e62352769)" style="fill: #80aa85; opacity: 0.6"/>
   </g>
   <g id="patch_56">
    <path d="M 645.012293 266.4 
L 653.082541 266.4 
L 653.082541 266.4 
L 645.012293 266.4 
z
" clip-path="url(#p8e62352769)" style="fill: #80aa85; opacity: 0.6"/>
   </g>
   <g id="patch_57">
    <path d="M 653.082541 266.4 
L 661.152789 266.4 
L 661.152789 266.032184 
L 653.082541 266.032184 
z
" clip-path="url(#p8e62352769)" style="fill: #80aa85; opacity: 0.6"/>
   </g>
   <g id="patch_58">
    <path d="M 661.152789 266.4 
L 669.223037 266.4 
L 669.223037 266.4 
L 661.152789 266.4 
z
" clip-path="url(#p8e62352769)" style="fill: #80aa85; opacity: 0.6"/>
   </g>
   <g id="patch_59">
    <path d="M 669.223037 266.4 
L 677.293285 266.4 
L 677.293285 266.032184 
L 669.223037 266.032184 
z
" clip-path="url(#p8e62352769)" style="fill: #80aa85; opacity: 0.6"/>
   </g>
   <g id="patch_60">
    <path d="M 677.293285 266.4 
L 685.363533 266.4 
L 685.363533 266.4 
L 677.293285 266.4 
z
" clip-path="url(#p8e62352769)" style="fill: #80aa85; opacity: 0.6"/>
   </g>
   <g id="patch_61">
    <path d="M 685.363533 266.4 
L 693.433781 266.4 
L 693.433781 266.4 
L 685.363533 266.4 
z
" clip-path="url(#p8e62352769)" style="fill: #80aa85; opacity: 0.6"/>
   </g>
   <g id="patch_62">
    <path d="M 693.433781 266.4 
L 701.504029 266.4 
L 701.504029 266.4 
L 693.433781 266.4 
z
" clip-path="url(#p8e62352769)" style="fill: #80aa85; opacity: 0.6"/>
   </g>
   <g id="patch_63">
    <path d="M 701.504029 266.4 
L 709.574277 266.4 
L 709.574277 266.4 
L 701.504029 266.4 
z
" clip-path="url(#p8e62352769)" style="fill: #80aa85; opacity: 0.6"/>
   </g>
   <g id="patch_64">
    <path d="M 709.574277 266.4 
L 717.644525 266.4 
L 717.644525 266.4 
L 709.574277 266.4 
z
" clip-path="url(#p8e62352769)" style="fill: #80aa85; opacity: 0.6"/>
   </g>
   <g id="patch_65">
    <path d="M 717.644525 266.4 
L 725.714773 266.4 
L 725.714773 266.4 
L 717.644525 266.4 
z
" clip-path="url(#p8e62352769)" style="fill: #80aa85; opacity: 0.6"/>
   </g>
   <g id="patch_66">
    <path d="M 725.714773 266.4 
L 733.785021 266.4 
L 733.785021 266.4 
L 725.714773 266.4 
z
" clip-path="url(#p8e62352769)" style="fill: #80aa85; opacity: 0.6"/>
   </g>
   <g id="patch_67">
    <path d="M 733.785021 266.4 
L 741.855269 266.4 
L 741.855269 266.4 
L 733.785021 266.4 
z
" clip-path="url(#p8e62352769)" style="fill: #80aa85; opacity: 0.6"/>
   </g>
   <g id="patch_68">
    <path d="M 741.855269 266.4 
L 749.925517 266.4 
L 749.925517 266.4 
L 741.855269 266.4 
z
" clip-path="url(#p8e62352769)" style="fill: #80aa85; opacity: 0.6"/>
   </g>
   <g id="patch_69">
    <path d="M 749.925517 266.4 
L 757.995764 266.4 
L 757.995764 266.4 
L 749.925517 266.4 
z
" clip-path="url(#p8e62352769)" style="fill: #80aa85; opacity: 0.6"/>
   </g>
   <g id="patch_70">
    <path d="M 757.995764 266.4 
L 766.066012 266.4 
L 766.066012 266.4 
L 757.995764 266.4 
z
" clip-path="url(#p8e62352769)" style="fill: #80aa85; opacity: 0.6"/>
   </g>
   <g id="patch_71">
    <path d="M 766.066012 266.4 
L 774.13626 266.4 
L 774.13626 266.4 
L 766.066012 266.4 
z
" clip-path="url(#p8e62352769)" style="fill: #80aa85; opacity: 0.6"/>
   </g>
   <g id="patch_72">
    <path d="M 774.13626 266.4 
L 782.206508 266.4 
L 782.206508 266.4 
L 774.13626 266.4 
z
" clip-path="url(#p8e62352769)" style="fill: #80aa85; opacity: 0.6"/>
   </g>
   <g id="patch_73">
    <path d="M 782.206508 266.4 
L 790.276756 266.4 
L 790.276756 266.4 
L 782.206508 266.4 
z
" clip-path="url(#p8e62352769)" style="fill: #80aa85; opacity: 0.6"/>
   </g>
   <g id="patch_74">
    <path d="M 790.276756 266.4 
L 798.347004 266.4 
L 798.347004 266.032184 
L 790.276756 266.032184 
z
" clip-path="url(#p8e62352769)" style="fill: #80aa85; opacity: 0.6"/>
   </g>
   <g id="matplotlib.axis_3">
    <g id="xtick_7">
     <g id="line2d_12">
      <g>
       <use xlink:href="#m2ce08bfe84" x="471.982903" y="266.4" style="stroke: #000000; stroke-width: 0.8"/>
      </g>
     </g>
     <g id="text_15">
      <!-- 0 -->
      <g transform="translate(468.801653 280.998437) scale(0.1 -0.1)">
       <use xlink:href="#DejaVuSans-30"/>
      </g>
     </g>
    </g>
    <g id="xtick_8">
     <g id="line2d_13">
      <g>
       <use xlink:href="#m2ce08bfe84" x="532.842207" y="266.4" style="stroke: #000000; stroke-width: 0.8"/>
      </g>
     </g>
     <g id="text_16">
      <!-- 10000 -->
      <g transform="translate(516.935957 280.998437) scale(0.1 -0.1)">
       <use xlink:href="#DejaVuSans-31"/>
       <use xlink:href="#DejaVuSans-30" x="63.623047"/>
       <use xlink:href="#DejaVuSans-30" x="127.246094"/>
       <use xlink:href="#DejaVuSans-30" x="190.869141"/>
       <use xlink:href="#DejaVuSans-30" x="254.492188"/>
      </g>
     </g>
    </g>
    <g id="xtick_9">
     <g id="line2d_14">
      <g>
       <use xlink:href="#m2ce08bfe84" x="593.70151" y="266.4" style="stroke: #000000; stroke-width: 0.8"/>
      </g>
     </g>
     <g id="text_17">
      <!-- 20000 -->
      <g transform="translate(577.79526 280.998437) scale(0.1 -0.1)">
       <use xlink:href="#DejaVuSans-32"/>
       <use xlink:href="#DejaVuSans-30" x="63.623047"/>
       <use xlink:href="#DejaVuSans-30" x="127.246094"/>
       <use xlink:href="#DejaVuSans-30" x="190.869141"/>
       <use xlink:href="#DejaVuSans-30" x="254.492188"/>
      </g>
     </g>
    </g>
    <g id="xtick_10">
     <g id="line2d_15">
      <g>
       <use xlink:href="#m2ce08bfe84" x="654.560814" y="266.4" style="stroke: #000000; stroke-width: 0.8"/>
      </g>
     </g>
     <g id="text_18">
      <!-- 30000 -->
      <g transform="translate(638.654564 280.998437) scale(0.1 -0.1)">
       <defs>
        <path id="DejaVuSans-33" d="M 2597 2516 
Q 3050 2419 3304 2112 
Q 3559 1806 3559 1356 
Q 3559 666 3084 287 
Q 2609 -91 1734 -91 
Q 1441 -91 1130 -33 
Q 819 25 488 141 
L 488 750 
Q 750 597 1062 519 
Q 1375 441 1716 441 
Q 2309 441 2620 675 
Q 2931 909 2931 1356 
Q 2931 1769 2642 2001 
Q 2353 2234 1838 2234 
L 1294 2234 
L 1294 2753 
L 1863 2753 
Q 2328 2753 2575 2939 
Q 2822 3125 2822 3475 
Q 2822 3834 2567 4026 
Q 2313 4219 1838 4219 
Q 1578 4219 1281 4162 
Q 984 4106 628 3988 
L 628 4550 
Q 988 4650 1302 4700 
Q 1616 4750 1894 4750 
Q 2613 4750 3031 4423 
Q 3450 4097 3450 3541 
Q 3450 3153 3228 2886 
Q 3006 2619 2597 2516 
z
" transform="scale(0.015625)"/>
       </defs>
       <use xlink:href="#DejaVuSans-33"/>
       <use xlink:href="#DejaVuSans-30" x="63.623047"/>
       <use xlink:href="#DejaVuSans-30" x="127.246094"/>
       <use xlink:href="#DejaVuSans-30" x="190.869141"/>
       <use xlink:href="#DejaVuSans-30" x="254.492188"/>
      </g>
     </g>
    </g>
    <g id="xtick_11">
     <g id="line2d_16">
      <g>
       <use xlink:href="#m2ce08bfe84" x="715.420117" y="266.4" style="stroke: #000000; stroke-width: 0.8"/>
      </g>
     </g>
     <g id="text_19">
      <!-- 40000 -->
      <g transform="translate(699.513867 280.998437) scale(0.1 -0.1)">
       <use xlink:href="#DejaVuSans-34"/>
       <use xlink:href="#DejaVuSans-30" x="63.623047"/>
       <use xlink:href="#DejaVuSans-30" x="127.246094"/>
       <use xlink:href="#DejaVuSans-30" x="190.869141"/>
       <use xlink:href="#DejaVuSans-30" x="254.492188"/>
      </g>
     </g>
    </g>
    <g id="xtick_12">
     <g id="line2d_17">
      <g>
       <use xlink:href="#m2ce08bfe84" x="776.279421" y="266.4" style="stroke: #000000; stroke-width: 0.8"/>
      </g>
     </g>
     <g id="text_20">
      <!-- 50000 -->
      <g transform="translate(760.373171 280.998437) scale(0.1 -0.1)">
       <use xlink:href="#DejaVuSans-35"/>
       <use xlink:href="#DejaVuSans-30" x="63.623047"/>
       <use xlink:href="#DejaVuSans-30" x="127.246094"/>
       <use xlink:href="#DejaVuSans-30" x="190.869141"/>
       <use xlink:href="#DejaVuSans-30" x="254.492188"/>
      </g>
     </g>
    </g>
    <g id="text_21">
     <!-- Contigs, N -->
     <g transform="translate(600.869077 297.715937) scale(0.14 -0.14)">
      <defs>
       <path id="DejaVuSans-43" d="M 4122 4306 
L 4122 3641 
Q 3803 3938 3442 4084 
Q 3081 4231 2675 4231 
Q 1875 4231 1450 3742 
Q 1025 3253 1025 2328 
Q 1025 1406 1450 917 
Q 1875 428 2675 428 
Q 3081 428 3442 575 
Q 3803 722 4122 1019 
L 4122 359 
Q 3791 134 3420 21 
Q 3050 -91 2638 -91 
Q 1578 -91 968 557 
Q 359 1206 359 2328 
Q 359 3453 968 4101 
Q 1578 4750 2638 4750 
Q 3056 4750 3426 4639 
Q 3797 4528 4122 4306 
z
" transform="scale(0.015625)"/>
       <path id="DejaVuSans-4e" d="M 628 4666 
L 1478 4666 
L 3547 763 
L 3547 4666 
L 4159 4666 
L 4159 0 
L 3309 0 
L 1241 3903 
L 1241 0 
L 628 0 
L 628 4666 
z
" transform="scale(0.015625)"/>
      </defs>
      <use xlink:href="#DejaVuSans-43"/>
      <use xlink:href="#DejaVuSans-6f" x="69.824219"/>
      <use xlink:href="#DejaVuSans-6e" x="131.005859"/>
      <use xlink:href="#DejaVuSans-74" x="194.384766"/>
      <use xlink:href="#DejaVuSans-69" x="233.59375"/>
      <use xlink:href="#DejaVuSans-67" x="261.376953"/>
      <use xlink:href="#DejaVuSans-73" x="324.853516"/>
      <use xlink:href="#DejaVuSans-2c" x="376.953125"/>
      <use xlink:href="#DejaVuSans-20" x="408.740234"/>
      <use xlink:href="#DejaVuSans-4e" x="440.527344"/>
     </g>
    </g>
   </g>
   <g id="matplotlib.axis_4">
    <g id="ytick_6">
     <g id="line2d_18">
      <g>
       <use xlink:href="#m1f23ba5ed3" x="459.396591" y="266.4" style="stroke: #000000; stroke-width: 0.8"/>
      </g>
     </g>
     <g id="text_22">
      <!-- 0 -->
      <g transform="translate(446.034091 270.199219) scale(0.1 -0.1)">
       <use xlink:href="#DejaVuSans-30"/>
      </g>
     </g>
    </g>
    <g id="ytick_7">
     <g id="line2d_19">
      <g>
       <use xlink:href="#m1f23ba5ed3" x="459.396591" y="229.618391" style="stroke: #000000; stroke-width: 0.8"/>
      </g>
     </g>
     <g id="text_23">
      <!-- 100 -->
      <g transform="translate(433.309091 233.41761) scale(0.1 -0.1)">
       <use xlink:href="#DejaVuSans-31"/>
       <use xlink:href="#DejaVuSans-30" x="63.623047"/>
       <use xlink:href="#DejaVuSans-30" x="127.246094"/>
      </g>
     </g>
    </g>
    <g id="ytick_8">
     <g id="line2d_20">
      <g>
       <use xlink:href="#m1f23ba5ed3" x="459.396591" y="192.836782" style="stroke: #000000; stroke-width: 0.8"/>
      </g>
     </g>
     <g id="text_24">
      <!-- 200 -->
      <g transform="translate(433.309091 196.636) scale(0.1 -0.1)">
       <use xlink:href="#DejaVuSans-32"/>
       <use xlink:href="#DejaVuSans-30" x="63.623047"/>
       <use xlink:href="#DejaVuSans-30" x="127.246094"/>
      </g>
     </g>
    </g>
    <g id="ytick_9">
     <g id="line2d_21">
      <g>
       <use xlink:href="#m1f23ba5ed3" x="459.396591" y="156.055172" style="stroke: #000000; stroke-width: 0.8"/>
      </g>
     </g>
     <g id="text_25">
      <!-- 300 -->
      <g transform="translate(433.309091 159.854391) scale(0.1 -0.1)">
       <use xlink:href="#DejaVuSans-33"/>
       <use xlink:href="#DejaVuSans-30" x="63.623047"/>
       <use xlink:href="#DejaVuSans-30" x="127.246094"/>
      </g>
     </g>
    </g>
    <g id="ytick_10">
     <g id="line2d_22">
      <g>
       <use xlink:href="#m1f23ba5ed3" x="459.396591" y="119.273563" style="stroke: #000000; stroke-width: 0.8"/>
      </g>
     </g>
     <g id="text_26">
      <!-- 400 -->
      <g transform="translate(433.309091 123.072782) scale(0.1 -0.1)">
       <use xlink:href="#DejaVuSans-34"/>
       <use xlink:href="#DejaVuSans-30" x="63.623047"/>
       <use xlink:href="#DejaVuSans-30" x="127.246094"/>
      </g>
     </g>
    </g>
    <g id="ytick_11">
     <g id="line2d_23">
      <g>
       <use xlink:href="#m1f23ba5ed3" x="459.396591" y="82.491954" style="stroke: #000000; stroke-width: 0.8"/>
      </g>
     </g>
     <g id="text_27">
      <!-- 500 -->
      <g transform="translate(433.309091 86.291173) scale(0.1 -0.1)">
       <use xlink:href="#DejaVuSans-35"/>
       <use xlink:href="#DejaVuSans-30" x="63.623047"/>
       <use xlink:href="#DejaVuSans-30" x="127.246094"/>
      </g>
     </g>
    </g>
   </g>
   <g id="patch_75">
    <path d="M 459.396591 266.4 
L 459.396591 64.8 
" style="fill: none; stroke: #000000; stroke-width: 0.8; stroke-linejoin: miter; stroke-linecap: square"/>
   </g>
   <g id="patch_76">
    <path d="M 814.4875 266.4 
L 814.4875 64.8 
" style="fill: none; stroke: #000000; stroke-width: 0.8; stroke-linejoin: miter; stroke-linecap: square"/>
   </g>
   <g id="patch_77">
    <path d="M 459.396591 266.4 
L 814.4875 266.4 
" style="fill: none; stroke: #000000; stroke-width: 0.8; stroke-linejoin: miter; stroke-linecap: square"/>
   </g>
   <g id="patch_78">
    <path d="M 459.396591 64.8 
L 814.4875 64.8 
" style="fill: none; stroke: #000000; stroke-width: 0.8; stroke-linejoin: miter; stroke-linecap: square"/>
   </g>
   <g id="text_28">
    <!-- median = 4814 -->
    <g transform="translate(684.990466 119.273563) scale(0.14 -0.14)">
     <use xlink:href="#DejaVuSans-6d"/>
     <use xlink:href="#DejaVuSans-65" x="97.412109"/>
     <use xlink:href="#DejaVuSans-64" x="158.935547"/>
     <use xlink:href="#DejaVuSans-69" x="222.412109"/>
     <use xlink:href="#DejaVuSans-61" x="250.195312"/>
     <use xlink:href="#DejaVuSans-6e" x="311.474609"/>
     <use xlink:href="#DejaVuSans-20" x="374.853516"/>
     <use xlink:href="#DejaVuSans-3d" x="406.640625"/>
     <use xlink:href="#DejaVuSans-20" x="490.429688"/>
     <use xlink:href="#DejaVuSans-34" x="522.216797"/>
     <use xlink:href="#DejaVuSans-38" x="585.839844"/>
     <use xlink:href="#DejaVuSans-31" x="649.462891"/>
     <use xlink:href="#DejaVuSans-34" x="713.085938"/>
    </g>
   </g>
   <g id="legend_2">
    <g id="patch_79">
     <path d="M 672.004687 96.549375 
L 804.6875 96.549375 
Q 807.4875 96.549375 807.4875 93.749375 
L 807.4875 74.6 
Q 807.4875 71.8 804.6875 71.8 
L 672.004687 71.8 
Q 669.204687 71.8 669.204687 74.6 
L 669.204687 93.749375 
Q 669.204687 96.549375 672.004687 96.549375 
z
" style="fill: #ffffff; opacity: 0.8; stroke: #cccccc; stroke-linejoin: miter"/>
    </g>
    <g id="patch_80">
     <path d="M 674.804687 88.037812 
L 702.804687 88.037812 
L 702.804687 78.237812 
L 674.804687 78.237812 
z
" style="fill: #80aa85; opacity: 0.6"/>
    </g>
    <g id="text_29">
     <!-- N50, contigs -->
     <g transform="translate(714.004687 88.037812) scale(0.14 -0.14)">
      <defs>
       <path id="DejaVuSans-63" d="M 3122 3366 
L 3122 2828 
Q 2878 2963 2633 3030 
Q 2388 3097 2138 3097 
Q 1578 3097 1268 2742 
Q 959 2388 959 1747 
Q 959 1106 1268 751 
Q 1578 397 2138 397 
Q 2388 397 2633 464 
Q 2878 531 3122 666 
L 3122 134 
Q 2881 22 2623 -34 
Q 2366 -91 2075 -91 
Q 1284 -91 818 406 
Q 353 903 353 1747 
Q 353 2603 823 3093 
Q 1294 3584 2113 3584 
Q 2378 3584 2631 3529 
Q 2884 3475 3122 3366 
z
" transform="scale(0.015625)"/>
      </defs>
      <use xlink:href="#DejaVuSans-4e"/>
      <use xlink:href="#DejaVuSans-35" x="74.804688"/>
      <use xlink:href="#DejaVuSans-30" x="138.427734"/>
      <use xlink:href="#DejaVuSans-2c" x="202.050781"/>
      <use xlink:href="#DejaVuSans-20" x="233.837891"/>
      <use xlink:href="#DejaVuSans-63" x="265.625"/>
      <use xlink:href="#DejaVuSans-6f" x="320.605469"/>
      <use xlink:href="#DejaVuSans-6e" x="381.787109"/>
      <use xlink:href="#DejaVuSans-74" x="445.166016"/>
      <use xlink:href="#DejaVuSans-69" x="484.375"/>
      <use xlink:href="#DejaVuSans-67" x="512.158203"/>
      <use xlink:href="#DejaVuSans-73" x="575.634766"/>
     </g>
    </g>
   </g>
  </g>
  <g id="axes_3">
   <g id="patch_81">
    <path d="M 33.2875 508.32 
L 388.378409 508.32 
L 388.378409 306.72 
L 33.2875 306.72 
z
" style="fill: #ffffff"/>
   </g>
   <g id="patch_82">
    <path d="M 49.427996 508.32 
L 60.188326 508.32 
L 60.188326 507.769857 
L 49.427996 507.769857 
z
" clip-path="url(#p067a0e4be7)" style="fill: #db875b; opacity: 0.6"/>
   </g>
   <g id="patch_83">
    <path d="M 60.188326 508.32 
L 70.948657 508.32 
L 70.948657 508.32 
L 60.188326 508.32 
z
" clip-path="url(#p067a0e4be7)" style="fill: #db875b; opacity: 0.6"/>
   </g>
   <g id="patch_84">
    <path d="M 70.948657 508.32 
L 81.708988 508.32 
L 81.708988 508.32 
L 70.948657 508.32 
z
" clip-path="url(#p067a0e4be7)" style="fill: #db875b; opacity: 0.6"/>
   </g>
   <g id="patch_85">
    <path d="M 81.708988 508.32 
L 92.469318 508.32 
L 92.469318 508.32 
L 81.708988 508.32 
z
" clip-path="url(#p067a0e4be7)" style="fill: #db875b; opacity: 0.6"/>
   </g>
   <g id="patch_86">
    <path d="M 92.469318 508.32 
L 103.229649 508.32 
L 103.229649 506.66957 
L 92.469318 506.66957 
z
" clip-path="url(#p067a0e4be7)" style="fill: #db875b; opacity: 0.6"/>
   </g>
   <g id="patch_87">
    <path d="M 103.229649 508.32 
L 113.989979 508.32 
L 113.989979 502.818567 
L 103.229649 502.818567 
z
" clip-path="url(#p067a0e4be7)" style="fill: #db875b; opacity: 0.6"/>
   </g>
   <g id="patch_88">
    <path d="M 113.989979 508.32 
L 124.75031 508.32 
L 124.75031 490.715415 
L 113.989979 490.715415 
z
" clip-path="url(#p067a0e4be7)" style="fill: #db875b; opacity: 0.6"/>
   </g>
   <g id="patch_89">
    <path d="M 124.75031 508.32 
L 135.51064 508.32 
L 135.51064 453.855817 
L 124.75031 453.855817 
z
" clip-path="url(#p067a0e4be7)" style="fill: #db875b; opacity: 0.6"/>
   </g>
   <g id="patch_90">
    <path d="M 135.51064 508.32 
L 146.270971 508.32 
L 146.270971 392.239771 
L 135.51064 392.239771 
z
" clip-path="url(#p067a0e4be7)" style="fill: #db875b; opacity: 0.6"/>
   </g>
   <g id="patch_91">
    <path d="M 146.270971 508.32 
L 157.031302 508.32 
L 157.031302 333.374441 
L 146.270971 333.374441 
z
" clip-path="url(#p067a0e4be7)" style="fill: #db875b; opacity: 0.6"/>
   </g>
   <g id="patch_92">
    <path d="M 157.031302 508.32 
L 167.791632 508.32 
L 167.791632 316.32 
L 157.031302 316.32 
z
" clip-path="url(#p067a0e4be7)" style="fill: #db875b; opacity: 0.6"/>
   </g>
   <g id="patch_93">
    <path d="M 167.791632 508.32 
L 178.551963 508.32 
L 178.551963 330.623725 
L 167.791632 330.623725 
z
" clip-path="url(#p067a0e4be7)" style="fill: #db875b; opacity: 0.6"/>
   </g>
   <g id="patch_94">
    <path d="M 178.551963 508.32 
L 189.312293 508.32 
L 189.312293 383.987622 
L 178.551963 383.987622 
z
" clip-path="url(#p067a0e4be7)" style="fill: #db875b; opacity: 0.6"/>
   </g>
   <g id="patch_95">
    <path d="M 189.312293 508.32 
L 200.072624 508.32 
L 200.072624 429.09937 
L 189.312293 429.09937 
z
" clip-path="url(#p067a0e4be7)" style="fill: #db875b; opacity: 0.6"/>
   </g>
   <g id="patch_96">
    <path d="M 200.072624 508.32 
L 210.832955 508.32 
L 210.832955 468.709685 
L 200.072624 468.709685 
z
" clip-path="url(#p067a0e4be7)" style="fill: #db875b; opacity: 0.6"/>
   </g>
   <g id="patch_97">
    <path d="M 210.832955 508.32 
L 221.593285 508.32 
L 221.593285 474.211117 
L 210.832955 474.211117 
z
" clip-path="url(#p067a0e4be7)" style="fill: #db875b; opacity: 0.6"/>
   </g>
   <g id="patch_98">
    <path d="M 221.593285 508.32 
L 232.353616 508.32 
L 232.353616 494.016275 
L 221.593285 494.016275 
z
" clip-path="url(#p067a0e4be7)" style="fill: #db875b; opacity: 0.6"/>
   </g>
   <g id="patch_99">
    <path d="M 232.353616 508.32 
L 243.113946 508.32 
L 243.113946 503.368711 
L 232.353616 503.368711 
z
" clip-path="url(#p067a0e4be7)" style="fill: #db875b; opacity: 0.6"/>
   </g>
   <g id="patch_100">
    <path d="M 243.113946 508.32 
L 253.874277 508.32 
L 253.874277 503.368711 
L 243.113946 503.368711 
z
" clip-path="url(#p067a0e4be7)" style="fill: #db875b; opacity: 0.6"/>
   </g>
   <g id="patch_101">
    <path d="M 253.874277 508.32 
L 264.634607 508.32 
L 264.634607 505.01914 
L 253.874277 505.01914 
z
" clip-path="url(#p067a0e4be7)" style="fill: #db875b; opacity: 0.6"/>
   </g>
   <g id="patch_102">
    <path d="M 264.634607 508.32 
L 275.394938 508.32 
L 275.394938 506.66957 
L 264.634607 506.66957 
z
" clip-path="url(#p067a0e4be7)" style="fill: #db875b; opacity: 0.6"/>
   </g>
   <g id="patch_103">
    <path d="M 275.394938 508.32 
L 286.155269 508.32 
L 286.155269 507.219713 
L 275.394938 507.219713 
z
" clip-path="url(#p067a0e4be7)" style="fill: #db875b; opacity: 0.6"/>
   </g>
   <g id="patch_104">
    <path d="M 286.155269 508.32 
L 296.915599 508.32 
L 296.915599 508.32 
L 286.155269 508.32 
z
" clip-path="url(#p067a0e4be7)" style="fill: #db875b; opacity: 0.6"/>
   </g>
   <g id="patch_105">
    <path d="M 296.915599 508.32 
L 307.67593 508.32 
L 307.67593 508.32 
L 296.915599 508.32 
z
" clip-path="url(#p067a0e4be7)" style="fill: #db875b; opacity: 0.6"/>
   </g>
   <g id="patch_106">
    <path d="M 307.67593 508.32 
L 318.43626 508.32 
L 318.43626 507.219713 
L 307.67593 507.219713 
z
" clip-path="url(#p067a0e4be7)" style="fill: #db875b; opacity: 0.6"/>
   </g>
   <g id="patch_107">
    <path d="M 318.43626 508.32 
L 329.196591 508.32 
L 329.196591 508.32 
L 318.43626 508.32 
z
" clip-path="url(#p067a0e4be7)" style="fill: #db875b; opacity: 0.6"/>
   </g>
   <g id="patch_108">
    <path d="M 329.196591 508.32 
L 339.956921 508.32 
L 339.956921 508.32 
L 329.196591 508.32 
z
" clip-path="url(#p067a0e4be7)" style="fill: #db875b; opacity: 0.6"/>
   </g>
   <g id="patch_109">
    <path d="M 339.956921 508.32 
L 350.717252 508.32 
L 350.717252 508.32 
L 339.956921 508.32 
z
" clip-path="url(#p067a0e4be7)" style="fill: #db875b; opacity: 0.6"/>
   </g>
   <g id="patch_110">
    <path d="M 350.717252 508.32 
L 361.477583 508.32 
L 361.477583 508.32 
L 350.717252 508.32 
z
" clip-path="url(#p067a0e4be7)" style="fill: #db875b; opacity: 0.6"/>
   </g>
   <g id="patch_111">
    <path d="M 361.477583 508.32 
L 372.237913 508.32 
L 372.237913 507.769857 
L 361.477583 507.769857 
z
" clip-path="url(#p067a0e4be7)" style="fill: #db875b; opacity: 0.6"/>
   </g>
   <g id="matplotlib.axis_5">
    <g id="xtick_13">
     <g id="line2d_24">
      <g>
       <use xlink:href="#m2ce08bfe84" x="40.313942" y="508.32" style="stroke: #000000; stroke-width: 0.8"/>
      </g>
     </g>
     <g id="text_30">
      <!-- 500 -->
      <g transform="translate(30.770192 522.918437) scale(0.1 -0.1)">
       <use xlink:href="#DejaVuSans-35"/>
       <use xlink:href="#DejaVuSans-30" x="63.623047"/>
       <use xlink:href="#DejaVuSans-30" x="127.246094"/>
      </g>
     </g>
    </g>
    <g id="xtick_14">
     <g id="line2d_25">
      <g>
       <use xlink:href="#m2ce08bfe84" x="101.895384" y="508.32" style="stroke: #000000; stroke-width: 0.8"/>
      </g>
     </g>
     <g id="text_31">
      <!-- 1000 -->
      <g transform="translate(89.170384 522.918437) scale(0.1 -0.1)">
       <use xlink:href="#DejaVuSans-31"/>
       <use xlink:href="#DejaVuSans-30" x="63.623047"/>
       <use xlink:href="#DejaVuSans-30" x="127.246094"/>
       <use xlink:href="#DejaVuSans-30" x="190.869141"/>
      </g>
     </g>
    </g>
    <g id="xtick_15">
     <g id="line2d_26">
      <g>
       <use xlink:href="#m2ce08bfe84" x="163.476826" y="508.32" style="stroke: #000000; stroke-width: 0.8"/>
      </g>
     </g>
     <g id="text_32">
      <!-- 1500 -->
      <g transform="translate(150.751826 522.918437) scale(0.1 -0.1)">
       <use xlink:href="#DejaVuSans-31"/>
       <use xlink:href="#DejaVuSans-35" x="63.623047"/>
       <use xlink:href="#DejaVuSans-30" x="127.246094"/>
       <use xlink:href="#DejaVuSans-30" x="190.869141"/>
      </g>
     </g>
    </g>
    <g id="xtick_16">
     <g id="line2d_27">
      <g>
       <use xlink:href="#m2ce08bfe84" x="225.058268" y="508.32" style="stroke: #000000; stroke-width: 0.8"/>
      </g>
     </g>
     <g id="text_33">
      <!-- 2000 -->
      <g transform="translate(212.333268 522.918437) scale(0.1 -0.1)">
       <use xlink:href="#DejaVuSans-32"/>
       <use xlink:href="#DejaVuSans-30" x="63.623047"/>
       <use xlink:href="#DejaVuSans-30" x="127.246094"/>
       <use xlink:href="#DejaVuSans-30" x="190.869141"/>
      </g>
     </g>
    </g>
    <g id="xtick_17">
     <g id="line2d_28">
      <g>
       <use xlink:href="#m2ce08bfe84" x="286.639709" y="508.32" style="stroke: #000000; stroke-width: 0.8"/>
      </g>
     </g>
     <g id="text_34">
      <!-- 2500 -->
      <g transform="translate(273.914709 522.918437) scale(0.1 -0.1)">
       <use xlink:href="#DejaVuSans-32"/>
       <use xlink:href="#DejaVuSans-35" x="63.623047"/>
       <use xlink:href="#DejaVuSans-30" x="127.246094"/>
       <use xlink:href="#DejaVuSans-30" x="190.869141"/>
      </g>
     </g>
    </g>
    <g id="xtick_18">
     <g id="line2d_29">
      <g>
       <use xlink:href="#m2ce08bfe84" x="348.221151" y="508.32" style="stroke: #000000; stroke-width: 0.8"/>
      </g>
     </g>
     <g id="text_35">
      <!-- 3000 -->
      <g transform="translate(335.496151 522.918437) scale(0.1 -0.1)">
       <use xlink:href="#DejaVuSans-33"/>
       <use xlink:href="#DejaVuSans-30" x="63.623047"/>
       <use xlink:href="#DejaVuSans-30" x="127.246094"/>
       <use xlink:href="#DejaVuSans-30" x="190.869141"/>
      </g>
     </g>
    </g>
    <g id="text_36">
     <!-- Average contigs length, bp -->
     <g transform="translate(116.640298 539.635937) scale(0.14 -0.14)">
      <defs>
       <path id="DejaVuSans-41" d="M 2188 4044 
L 1331 1722 
L 3047 1722 
L 2188 4044 
z
M 1831 4666 
L 2547 4666 
L 4325 0 
L 3669 0 
L 3244 1197 
L 1141 1197 
L 716 0 
L 50 0 
L 1831 4666 
z
" transform="scale(0.015625)"/>
       <path id="DejaVuSans-76" d="M 191 3500 
L 800 3500 
L 1894 563 
L 2988 3500 
L 3597 3500 
L 2284 0 
L 1503 0 
L 191 3500 
z
" transform="scale(0.015625)"/>
       <path id="DejaVuSans-72" d="M 2631 2963 
Q 2534 3019 2420 3045 
Q 2306 3072 2169 3072 
Q 1681 3072 1420 2755 
Q 1159 2438 1159 1844 
L 1159 0 
L 581 0 
L 581 3500 
L 1159 3500 
L 1159 2956 
Q 1341 3275 1631 3429 
Q 1922 3584 2338 3584 
Q 2397 3584 2469 3576 
Q 2541 3569 2628 3553 
L 2631 2963 
z
" transform="scale(0.015625)"/>
       <path id="DejaVuSans-68" d="M 3513 2113 
L 3513 0 
L 2938 0 
L 2938 2094 
Q 2938 2591 2744 2837 
Q 2550 3084 2163 3084 
Q 1697 3084 1428 2787 
Q 1159 2491 1159 1978 
L 1159 0 
L 581 0 
L 581 4863 
L 1159 4863 
L 1159 2956 
Q 1366 3272 1645 3428 
Q 1925 3584 2291 3584 
Q 2894 3584 3203 3211 
Q 3513 2838 3513 2113 
z
" transform="scale(0.015625)"/>
      </defs>
      <use xlink:href="#DejaVuSans-41"/>
      <use xlink:href="#DejaVuSans-76" x="62.533203"/>
      <use xlink:href="#DejaVuSans-65" x="121.712891"/>
      <use xlink:href="#DejaVuSans-72" x="183.236328"/>
      <use xlink:href="#DejaVuSans-61" x="224.349609"/>
      <use xlink:href="#DejaVuSans-67" x="285.628906"/>
      <use xlink:href="#DejaVuSans-65" x="349.105469"/>
      <use xlink:href="#DejaVuSans-20" x="410.628906"/>
      <use xlink:href="#DejaVuSans-63" x="442.416016"/>
      <use xlink:href="#DejaVuSans-6f" x="497.396484"/>
      <use xlink:href="#DejaVuSans-6e" x="558.578125"/>
      <use xlink:href="#DejaVuSans-74" x="621.957031"/>
      <use xlink:href="#DejaVuSans-69" x="661.166016"/>
      <use xlink:href="#DejaVuSans-67" x="688.949219"/>
      <use xlink:href="#DejaVuSans-73" x="752.425781"/>
      <use xlink:href="#DejaVuSans-20" x="804.525391"/>
      <use xlink:href="#DejaVuSans-6c" x="836.3125"/>
      <use xlink:href="#DejaVuSans-65" x="864.095703"/>
      <use xlink:href="#DejaVuSans-6e" x="925.619141"/>
      <use xlink:href="#DejaVuSans-67" x="988.998047"/>
      <use xlink:href="#DejaVuSans-74" x="1052.474609"/>
      <use xlink:href="#DejaVuSans-68" x="1091.683594"/>
      <use xlink:href="#DejaVuSans-2c" x="1155.0625"/>
      <use xlink:href="#DejaVuSans-20" x="1186.849609"/>
      <use xlink:href="#DejaVuSans-62" x="1218.636719"/>
      <use xlink:href="#DejaVuSans-70" x="1282.113281"/>
     </g>
    </g>
   </g>
   <g id="matplotlib.axis_6">
    <g id="ytick_12">
     <g id="line2d_30">
      <g>
       <use xlink:href="#m1f23ba5ed3" x="33.2875" y="508.32" style="stroke: #000000; stroke-width: 0.8"/>
      </g>
     </g>
     <g id="text_37">
      <!-- 0 -->
      <g transform="translate(19.925 512.119219) scale(0.1 -0.1)">
       <use xlink:href="#DejaVuSans-30"/>
      </g>
     </g>
    </g>
    <g id="ytick_13">
     <g id="line2d_31">
      <g>
       <use xlink:href="#m1f23ba5ed3" x="33.2875" y="480.812837" style="stroke: #000000; stroke-width: 0.8"/>
      </g>
     </g>
     <g id="text_38">
      <!-- 50 -->
      <g transform="translate(13.5625 484.612055) scale(0.1 -0.1)">
       <use xlink:href="#DejaVuSans-35"/>
       <use xlink:href="#DejaVuSans-30" x="63.623047"/>
      </g>
     </g>
    </g>
    <g id="ytick_14">
     <g id="line2d_32">
      <g>
       <use xlink:href="#m1f23ba5ed3" x="33.2875" y="453.305673" style="stroke: #000000; stroke-width: 0.8"/>
      </g>
     </g>
     <g id="text_39">
      <!-- 100 -->
      <g transform="translate(7.2 457.104892) scale(0.1 -0.1)">
       <use xlink:href="#DejaVuSans-31"/>
       <use xlink:href="#DejaVuSans-30" x="63.623047"/>
       <use xlink:href="#DejaVuSans-30" x="127.246094"/>
      </g>
     </g>
    </g>
    <g id="ytick_15">
     <g id="line2d_33">
      <g>
       <use xlink:href="#m1f23ba5ed3" x="33.2875" y="425.79851" style="stroke: #000000; stroke-width: 0.8"/>
      </g>
     </g>
     <g id="text_40">
      <!-- 150 -->
      <g transform="translate(7.2 429.597729) scale(0.1 -0.1)">
       <use xlink:href="#DejaVuSans-31"/>
       <use xlink:href="#DejaVuSans-35" x="63.623047"/>
       <use xlink:href="#DejaVuSans-30" x="127.246094"/>
      </g>
     </g>
    </g>
    <g id="ytick_16">
     <g id="line2d_34">
      <g>
       <use xlink:href="#m1f23ba5ed3" x="33.2875" y="398.291347" style="stroke: #000000; stroke-width: 0.8"/>
      </g>
     </g>
     <g id="text_41">
      <!-- 200 -->
      <g transform="translate(7.2 402.090565) scale(0.1 -0.1)">
       <use xlink:href="#DejaVuSans-32"/>
       <use xlink:href="#DejaVuSans-30" x="63.623047"/>
       <use xlink:href="#DejaVuSans-30" x="127.246094"/>
      </g>
     </g>
    </g>
    <g id="ytick_17">
     <g id="line2d_35">
      <g>
       <use xlink:href="#m1f23ba5ed3" x="33.2875" y="370.784183" style="stroke: #000000; stroke-width: 0.8"/>
      </g>
     </g>
     <g id="text_42">
      <!-- 250 -->
      <g transform="translate(7.2 374.583402) scale(0.1 -0.1)">
       <use xlink:href="#DejaVuSans-32"/>
       <use xlink:href="#DejaVuSans-35" x="63.623047"/>
       <use xlink:href="#DejaVuSans-30" x="127.246094"/>
      </g>
     </g>
    </g>
    <g id="ytick_18">
     <g id="line2d_36">
      <g>
       <use xlink:href="#m1f23ba5ed3" x="33.2875" y="343.27702" style="stroke: #000000; stroke-width: 0.8"/>
      </g>
     </g>
     <g id="text_43">
      <!-- 300 -->
      <g transform="translate(7.2 347.076239) scale(0.1 -0.1)">
       <use xlink:href="#DejaVuSans-33"/>
       <use xlink:href="#DejaVuSans-30" x="63.623047"/>
       <use xlink:href="#DejaVuSans-30" x="127.246094"/>
      </g>
     </g>
    </g>
    <g id="ytick_19">
     <g id="line2d_37">
      <g>
       <use xlink:href="#m1f23ba5ed3" x="33.2875" y="315.769857" style="stroke: #000000; stroke-width: 0.8"/>
      </g>
     </g>
     <g id="text_44">
      <!-- 350 -->
      <g transform="translate(7.2 319.569075) scale(0.1 -0.1)">
       <use xlink:href="#DejaVuSans-33"/>
       <use xlink:href="#DejaVuSans-35" x="63.623047"/>
       <use xlink:href="#DejaVuSans-30" x="127.246094"/>
      </g>
     </g>
    </g>
   </g>
   <g id="patch_112">
    <path d="M 33.2875 508.32 
L 33.2875 306.72 
" style="fill: none; stroke: #000000; stroke-width: 0.8; stroke-linejoin: miter; stroke-linecap: square"/>
   </g>
   <g id="patch_113">
    <path d="M 388.378409 508.32 
L 388.378409 306.72 
" style="fill: none; stroke: #000000; stroke-width: 0.8; stroke-linejoin: miter; stroke-linecap: square"/>
   </g>
   <g id="patch_114">
    <path d="M 33.2875 508.32 
L 388.378409 508.32 
" style="fill: none; stroke: #000000; stroke-width: 0.8; stroke-linejoin: miter; stroke-linecap: square"/>
   </g>
   <g id="patch_115">
    <path d="M 33.2875 306.72 
L 388.378409 306.72 
" style="fill: none; stroke: #000000; stroke-width: 0.8; stroke-linejoin: miter; stroke-linecap: square"/>
   </g>
   <g id="text_45">
    <!-- median = 1515 -->
    <g transform="translate(268.165277 359.781318) scale(0.14 -0.14)">
     <use xlink:href="#DejaVuSans-6d"/>
     <use xlink:href="#DejaVuSans-65" x="97.412109"/>
     <use xlink:href="#DejaVuSans-64" x="158.935547"/>
     <use xlink:href="#DejaVuSans-69" x="222.412109"/>
     <use xlink:href="#DejaVuSans-61" x="250.195312"/>
     <use xlink:href="#DejaVuSans-6e" x="311.474609"/>
     <use xlink:href="#DejaVuSans-20" x="374.853516"/>
     <use xlink:href="#DejaVuSans-3d" x="406.640625"/>
     <use xlink:href="#DejaVuSans-20" x="490.429688"/>
     <use xlink:href="#DejaVuSans-31" x="522.216797"/>
     <use xlink:href="#DejaVuSans-35" x="585.839844"/>
     <use xlink:href="#DejaVuSans-31" x="649.462891"/>
     <use xlink:href="#DejaVuSans-35" x="713.085938"/>
    </g>
   </g>
   <g id="legend_3">
    <g id="patch_116">
     <path d="M 265.672784 338.85875 
L 378.578409 338.85875 
Q 381.378409 338.85875 381.378409 336.05875 
L 381.378409 316.52 
Q 381.378409 313.72 378.578409 313.72 
L 265.672784 313.72 
Q 262.872784 313.72 262.872784 316.52 
L 262.872784 336.05875 
Q 262.872784 338.85875 265.672784 338.85875 
z
" style="fill: #ffffff; opacity: 0.8; stroke: #cccccc; stroke-linejoin: miter"/>
    </g>
    <g id="patch_117">
     <path d="M 268.472784 329.957812 
L 296.472784 329.957812 
L 296.472784 320.157812 
L 268.472784 320.157812 
z
" style="fill: #db875b; opacity: 0.6"/>
    </g>
    <g id="text_46">
     <!-- avgCL_bp -->
     <g transform="translate(307.672784 329.957812) scale(0.14 -0.14)">
      <defs>
       <path id="DejaVuSans-4c" d="M 628 4666 
L 1259 4666 
L 1259 531 
L 3531 531 
L 3531 0 
L 628 0 
L 628 4666 
z
" transform="scale(0.015625)"/>
      </defs>
      <use xlink:href="#DejaVuSans-61"/>
      <use xlink:href="#DejaVuSans-76" x="61.279297"/>
      <use xlink:href="#DejaVuSans-67" x="120.458984"/>
      <use xlink:href="#DejaVuSans-43" x="183.935547"/>
      <use xlink:href="#DejaVuSans-4c" x="253.759766"/>
      <use xlink:href="#DejaVuSans-5f" x="309.472656"/>
      <use xlink:href="#DejaVuSans-62" x="359.472656"/>
      <use xlink:href="#DejaVuSans-70" x="422.949219"/>
     </g>
    </g>
   </g>
  </g>
  <g id="axes_4">
   <g id="patch_118">
    <path d="M 459.396591 508.32 
L 814.4875 508.32 
L 814.4875 306.72 
L 459.396591 306.72 
z
" style="fill: #ffffff"/>
   </g>
   <g id="patch_119">
    <path d="M 475.537087 508.32 
L 486.297417 508.32 
L 486.297417 507.418592 
L 475.537087 507.418592 
z
" clip-path="url(#p4246080f5b)" style="fill: #6d86ad; opacity: 0.6"/>
   </g>
   <g id="patch_120">
    <path d="M 486.297417 508.32 
L 497.057748 508.32 
L 497.057748 505.615775 
L 486.297417 505.615775 
z
" clip-path="url(#p4246080f5b)" style="fill: #6d86ad; opacity: 0.6"/>
   </g>
   <g id="patch_121">
    <path d="M 497.057748 508.32 
L 507.818079 508.32 
L 507.818079 505.16507 
L 497.057748 505.16507 
z
" clip-path="url(#p4246080f5b)" style="fill: #6d86ad; opacity: 0.6"/>
   </g>
   <g id="patch_122">
    <path d="M 507.818079 508.32 
L 518.578409 508.32 
L 518.578409 499.305915 
L 507.818079 499.305915 
z
" clip-path="url(#p4246080f5b)" style="fill: #6d86ad; opacity: 0.6"/>
   </g>
   <g id="patch_123">
    <path d="M 518.578409 508.32 
L 529.33874 508.32 
L 529.33874 470.911549 
L 518.578409 470.911549 
z
" clip-path="url(#p4246080f5b)" style="fill: #6d86ad; opacity: 0.6"/>
   </g>
   <g id="patch_124">
    <path d="M 529.33874 508.32 
L 540.09907 508.32 
L 540.09907 391.136901 
L 529.33874 391.136901 
z
" clip-path="url(#p4246080f5b)" style="fill: #6d86ad; opacity: 0.6"/>
   </g>
   <g id="patch_125">
    <path d="M 540.09907 508.32 
L 550.859401 508.32 
L 550.859401 355.080563 
L 540.09907 355.080563 
z
" clip-path="url(#p4246080f5b)" style="fill: #6d86ad; opacity: 0.6"/>
   </g>
   <g id="patch_126">
    <path d="M 550.859401 508.32 
L 561.619731 508.32 
L 561.619731 316.32 
L 550.859401 316.32 
z
" clip-path="url(#p4246080f5b)" style="fill: #6d86ad; opacity: 0.6"/>
   </g>
   <g id="patch_127">
    <path d="M 561.619731 508.32 
L 572.380062 508.32 
L 572.380062 341.559437 
L 561.619731 341.559437 
z
" clip-path="url(#p4246080f5b)" style="fill: #6d86ad; opacity: 0.6"/>
   </g>
   <g id="patch_128">
    <path d="M 572.380062 508.32 
L 583.140393 508.32 
L 583.140393 427.193239 
L 572.380062 427.193239 
z
" clip-path="url(#p4246080f5b)" style="fill: #6d86ad; opacity: 0.6"/>
   </g>
   <g id="patch_129">
    <path d="M 583.140393 508.32 
L 593.900723 508.32 
L 593.900723 469.108732 
L 583.140393 469.108732 
z
" clip-path="url(#p4246080f5b)" style="fill: #6d86ad; opacity: 0.6"/>
   </g>
   <g id="patch_130">
    <path d="M 593.900723 508.32 
L 604.661054 508.32 
L 604.661054 488.939718 
L 593.900723 488.939718 
z
" clip-path="url(#p4246080f5b)" style="fill: #6d86ad; opacity: 0.6"/>
   </g>
   <g id="patch_131">
    <path d="M 604.661054 508.32 
L 615.421384 508.32 
L 615.421384 489.390423 
L 604.661054 489.390423 
z
" clip-path="url(#p4246080f5b)" style="fill: #6d86ad; opacity: 0.6"/>
   </g>
   <g id="patch_132">
    <path d="M 615.421384 508.32 
L 626.181715 508.32 
L 626.181715 501.108732 
L 615.421384 501.108732 
z
" clip-path="url(#p4246080f5b)" style="fill: #6d86ad; opacity: 0.6"/>
   </g>
   <g id="patch_133">
    <path d="M 626.181715 508.32 
L 636.942045 508.32 
L 636.942045 503.812958 
L 626.181715 503.812958 
z
" clip-path="url(#p4246080f5b)" style="fill: #6d86ad; opacity: 0.6"/>
   </g>
   <g id="patch_134">
    <path d="M 636.942045 508.32 
L 647.702376 508.32 
L 647.702376 506.967887 
L 636.942045 506.967887 
z
" clip-path="url(#p4246080f5b)" style="fill: #6d86ad; opacity: 0.6"/>
   </g>
   <g id="patch_135">
    <path d="M 647.702376 508.32 
L 658.462707 508.32 
L 658.462707 506.517183 
L 647.702376 506.517183 
z
" clip-path="url(#p4246080f5b)" style="fill: #6d86ad; opacity: 0.6"/>
   </g>
   <g id="patch_136">
    <path d="M 658.462707 508.32 
L 669.223037 508.32 
L 669.223037 506.066479 
L 658.462707 506.066479 
z
" clip-path="url(#p4246080f5b)" style="fill: #6d86ad; opacity: 0.6"/>
   </g>
   <g id="patch_137">
    <path d="M 669.223037 508.32 
L 679.983368 508.32 
L 679.983368 507.418592 
L 669.223037 507.418592 
z
" clip-path="url(#p4246080f5b)" style="fill: #6d86ad; opacity: 0.6"/>
   </g>
   <g id="patch_138">
    <path d="M 679.983368 508.32 
L 690.743698 508.32 
L 690.743698 508.32 
L 679.983368 508.32 
z
" clip-path="url(#p4246080f5b)" style="fill: #6d86ad; opacity: 0.6"/>
   </g>
   <g id="patch_139">
    <path d="M 690.743698 508.32 
L 701.504029 508.32 
L 701.504029 508.32 
L 690.743698 508.32 
z
" clip-path="url(#p4246080f5b)" style="fill: #6d86ad; opacity: 0.6"/>
   </g>
   <g id="patch_140">
    <path d="M 701.504029 508.32 
L 712.26436 508.32 
L 712.26436 508.32 
L 701.504029 508.32 
z
" clip-path="url(#p4246080f5b)" style="fill: #6d86ad; opacity: 0.6"/>
   </g>
   <g id="patch_141">
    <path d="M 712.26436 508.32 
L 723.02469 508.32 
L 723.02469 508.32 
L 712.26436 508.32 
z
" clip-path="url(#p4246080f5b)" style="fill: #6d86ad; opacity: 0.6"/>
   </g>
   <g id="patch_142">
    <path d="M 723.02469 508.32 
L 733.785021 508.32 
L 733.785021 507.869296 
L 723.02469 507.869296 
z
" clip-path="url(#p4246080f5b)" style="fill: #6d86ad; opacity: 0.6"/>
   </g>
   <g id="patch_143">
    <path d="M 733.785021 508.32 
L 744.545351 508.32 
L 744.545351 508.32 
L 733.785021 508.32 
z
" clip-path="url(#p4246080f5b)" style="fill: #6d86ad; opacity: 0.6"/>
   </g>
   <g id="patch_144">
    <path d="M 744.545351 508.32 
L 755.305682 508.32 
L 755.305682 508.32 
L 744.545351 508.32 
z
" clip-path="url(#p4246080f5b)" style="fill: #6d86ad; opacity: 0.6"/>
   </g>
   <g id="patch_145">
    <path d="M 755.305682 508.32 
L 766.066012 508.32 
L 766.066012 508.32 
L 755.305682 508.32 
z
" clip-path="url(#p4246080f5b)" style="fill: #6d86ad; opacity: 0.6"/>
   </g>
   <g id="patch_146">
    <path d="M 766.066012 508.32 
L 776.826343 508.32 
L 776.826343 508.32 
L 766.066012 508.32 
z
" clip-path="url(#p4246080f5b)" style="fill: #6d86ad; opacity: 0.6"/>
   </g>
   <g id="patch_147">
    <path d="M 776.826343 508.32 
L 787.586674 508.32 
L 787.586674 508.32 
L 776.826343 508.32 
z
" clip-path="url(#p4246080f5b)" style="fill: #6d86ad; opacity: 0.6"/>
   </g>
   <g id="patch_148">
    <path d="M 787.586674 508.32 
L 798.347004 508.32 
L 798.347004 507.869296 
L 787.586674 507.869296 
z
" clip-path="url(#p4246080f5b)" style="fill: #6d86ad; opacity: 0.6"/>
   </g>
   <g id="matplotlib.axis_7">
    <g id="xtick_19">
     <g id="line2d_38">
      <g>
       <use xlink:href="#m2ce08bfe84" x="473.041045" y="508.32" style="stroke: #000000; stroke-width: 0.8"/>
      </g>
     </g>
     <g id="text_47">
      <!-- 0.0 -->
      <g transform="translate(465.089482 522.918437) scale(0.1 -0.1)">
       <defs>
        <path id="DejaVuSans-2e" d="M 684 794 
L 1344 794 
L 1344 0 
L 684 0 
L 684 794 
z
" transform="scale(0.015625)"/>
       </defs>
       <use xlink:href="#DejaVuSans-30"/>
       <use xlink:href="#DejaVuSans-2e" x="63.623047"/>
       <use xlink:href="#DejaVuSans-30" x="95.410156"/>
      </g>
     </g>
    </g>
    <g id="xtick_20">
     <g id="line2d_39">
      <g>
       <use xlink:href="#m2ce08bfe84" x="538.868414" y="508.32" style="stroke: #000000; stroke-width: 0.8"/>
      </g>
     </g>
     <g id="text_48">
      <!-- 0.5 -->
      <g transform="translate(530.916852 522.918437) scale(0.1 -0.1)">
       <use xlink:href="#DejaVuSans-30"/>
       <use xlink:href="#DejaVuSans-2e" x="63.623047"/>
       <use xlink:href="#DejaVuSans-35" x="95.410156"/>
      </g>
     </g>
    </g>
    <g id="xtick_21">
     <g id="line2d_40">
      <g>
       <use xlink:href="#m2ce08bfe84" x="604.695784" y="508.32" style="stroke: #000000; stroke-width: 0.8"/>
      </g>
     </g>
     <g id="text_49">
      <!-- 1.0 -->
      <g transform="translate(596.744222 522.918437) scale(0.1 -0.1)">
       <use xlink:href="#DejaVuSans-31"/>
       <use xlink:href="#DejaVuSans-2e" x="63.623047"/>
       <use xlink:href="#DejaVuSans-30" x="95.410156"/>
      </g>
     </g>
    </g>
    <g id="xtick_22">
     <g id="line2d_41">
      <g>
       <use xlink:href="#m2ce08bfe84" x="670.523154" y="508.32" style="stroke: #000000; stroke-width: 0.8"/>
      </g>
     </g>
     <g id="text_50">
      <!-- 1.5 -->
      <g transform="translate(662.571592 522.918437) scale(0.1 -0.1)">
       <use xlink:href="#DejaVuSans-31"/>
       <use xlink:href="#DejaVuSans-2e" x="63.623047"/>
       <use xlink:href="#DejaVuSans-35" x="95.410156"/>
      </g>
     </g>
    </g>
    <g id="xtick_23">
     <g id="line2d_42">
      <g>
       <use xlink:href="#m2ce08bfe84" x="736.350524" y="508.32" style="stroke: #000000; stroke-width: 0.8"/>
      </g>
     </g>
     <g id="text_51">
      <!-- 2.0 -->
      <g transform="translate(728.398961 522.918437) scale(0.1 -0.1)">
       <use xlink:href="#DejaVuSans-32"/>
       <use xlink:href="#DejaVuSans-2e" x="63.623047"/>
       <use xlink:href="#DejaVuSans-30" x="95.410156"/>
      </g>
     </g>
    </g>
    <g id="xtick_24">
     <g id="line2d_43">
      <g>
       <use xlink:href="#m2ce08bfe84" x="802.177894" y="508.32" style="stroke: #000000; stroke-width: 0.8"/>
      </g>
     </g>
     <g id="text_52">
      <!-- 2.5 -->
      <g transform="translate(794.226331 522.918437) scale(0.1 -0.1)">
       <use xlink:href="#DejaVuSans-32"/>
       <use xlink:href="#DejaVuSans-2e" x="63.623047"/>
       <use xlink:href="#DejaVuSans-35" x="95.410156"/>
      </g>
     </g>
    </g>
    <g id="text_53">
     <!-- Maximum contigs length, Mb -->
     <g transform="translate(535.409233 539.635937) scale(0.14 -0.14)">
      <defs>
       <path id="DejaVuSans-78" d="M 3513 3500 
L 2247 1797 
L 3578 0 
L 2900 0 
L 1881 1375 
L 863 0 
L 184 0 
L 1544 1831 
L 300 3500 
L 978 3500 
L 1906 2253 
L 2834 3500 
L 3513 3500 
z
" transform="scale(0.015625)"/>
       <path id="DejaVuSans-75" d="M 544 1381 
L 544 3500 
L 1119 3500 
L 1119 1403 
Q 1119 906 1312 657 
Q 1506 409 1894 409 
Q 2359 409 2629 706 
Q 2900 1003 2900 1516 
L 2900 3500 
L 3475 3500 
L 3475 0 
L 2900 0 
L 2900 538 
Q 2691 219 2414 64 
Q 2138 -91 1772 -91 
Q 1169 -91 856 284 
Q 544 659 544 1381 
z
M 1991 3584 
L 1991 3584 
z
" transform="scale(0.015625)"/>
      </defs>
      <use xlink:href="#DejaVuSans-4d"/>
      <use xlink:href="#DejaVuSans-61" x="86.279297"/>
      <use xlink:href="#DejaVuSans-78" x="147.558594"/>
      <use xlink:href="#DejaVuSans-69" x="206.738281"/>
      <use xlink:href="#DejaVuSans-6d" x="234.521484"/>
      <use xlink:href="#DejaVuSans-75" x="331.933594"/>
      <use xlink:href="#DejaVuSans-6d" x="395.3125"/>
      <use xlink:href="#DejaVuSans-20" x="492.724609"/>
      <use xlink:href="#DejaVuSans-63" x="524.511719"/>
      <use xlink:href="#DejaVuSans-6f" x="579.492188"/>
      <use xlink:href="#DejaVuSans-6e" x="640.673828"/>
      <use xlink:href="#DejaVuSans-74" x="704.052734"/>
      <use xlink:href="#DejaVuSans-69" x="743.261719"/>
      <use xlink:href="#DejaVuSans-67" x="771.044922"/>
      <use xlink:href="#DejaVuSans-73" x="834.521484"/>
      <use xlink:href="#DejaVuSans-20" x="886.621094"/>
      <use xlink:href="#DejaVuSans-6c" x="918.408203"/>
      <use xlink:href="#DejaVuSans-65" x="946.191406"/>
      <use xlink:href="#DejaVuSans-6e" x="1007.714844"/>
      <use xlink:href="#DejaVuSans-67" x="1071.09375"/>
      <use xlink:href="#DejaVuSans-74" x="1134.570312"/>
      <use xlink:href="#DejaVuSans-68" x="1173.779297"/>
      <use xlink:href="#DejaVuSans-2c" x="1237.158203"/>
      <use xlink:href="#DejaVuSans-20" x="1268.945312"/>
      <use xlink:href="#DejaVuSans-4d" x="1300.732422"/>
      <use xlink:href="#DejaVuSans-62" x="1387.011719"/>
     </g>
    </g>
   </g>
   <g id="matplotlib.axis_8">
    <g id="ytick_20">
     <g id="line2d_44">
      <g>
       <use xlink:href="#m1f23ba5ed3" x="459.396591" y="508.32" style="stroke: #000000; stroke-width: 0.8"/>
      </g>
     </g>
     <g id="text_54">
      <!-- 0 -->
      <g transform="translate(446.034091 512.119219) scale(0.1 -0.1)">
       <use xlink:href="#DejaVuSans-30"/>
      </g>
     </g>
    </g>
    <g id="ytick_21">
     <g id="line2d_45">
      <g>
       <use xlink:href="#m1f23ba5ed3" x="459.396591" y="485.784789" style="stroke: #000000; stroke-width: 0.8"/>
      </g>
     </g>
     <g id="text_55">
      <!-- 50 -->
      <g transform="translate(439.671591 489.584007) scale(0.1 -0.1)">
       <use xlink:href="#DejaVuSans-35"/>
       <use xlink:href="#DejaVuSans-30" x="63.623047"/>
      </g>
     </g>
    </g>
    <g id="ytick_22">
     <g id="line2d_46">
      <g>
       <use xlink:href="#m1f23ba5ed3" x="459.396591" y="463.249577" style="stroke: #000000; stroke-width: 0.8"/>
      </g>
     </g>
     <g id="text_56">
      <!-- 100 -->
      <g transform="translate(433.309091 467.048796) scale(0.1 -0.1)">
       <use xlink:href="#DejaVuSans-31"/>
       <use xlink:href="#DejaVuSans-30" x="63.623047"/>
       <use xlink:href="#DejaVuSans-30" x="127.246094"/>
      </g>
     </g>
    </g>
    <g id="ytick_23">
     <g id="line2d_47">
      <g>
       <use xlink:href="#m1f23ba5ed3" x="459.396591" y="440.714366" style="stroke: #000000; stroke-width: 0.8"/>
      </g>
     </g>
     <g id="text_57">
      <!-- 150 -->
      <g transform="translate(433.309091 444.513585) scale(0.1 -0.1)">
       <use xlink:href="#DejaVuSans-31"/>
       <use xlink:href="#DejaVuSans-35" x="63.623047"/>
       <use xlink:href="#DejaVuSans-30" x="127.246094"/>
      </g>
     </g>
    </g>
    <g id="ytick_24">
     <g id="line2d_48">
      <g>
       <use xlink:href="#m1f23ba5ed3" x="459.396591" y="418.179155" style="stroke: #000000; stroke-width: 0.8"/>
      </g>
     </g>
     <g id="text_58">
      <!-- 200 -->
      <g transform="translate(433.309091 421.978374) scale(0.1 -0.1)">
       <use xlink:href="#DejaVuSans-32"/>
       <use xlink:href="#DejaVuSans-30" x="63.623047"/>
       <use xlink:href="#DejaVuSans-30" x="127.246094"/>
      </g>
     </g>
    </g>
    <g id="ytick_25">
     <g id="line2d_49">
      <g>
       <use xlink:href="#m1f23ba5ed3" x="459.396591" y="395.643944" style="stroke: #000000; stroke-width: 0.8"/>
      </g>
     </g>
     <g id="text_59">
      <!-- 250 -->
      <g transform="translate(433.309091 399.443162) scale(0.1 -0.1)">
       <use xlink:href="#DejaVuSans-32"/>
       <use xlink:href="#DejaVuSans-35" x="63.623047"/>
       <use xlink:href="#DejaVuSans-30" x="127.246094"/>
      </g>
     </g>
    </g>
    <g id="ytick_26">
     <g id="line2d_50">
      <g>
       <use xlink:href="#m1f23ba5ed3" x="459.396591" y="373.108732" style="stroke: #000000; stroke-width: 0.8"/>
      </g>
     </g>
     <g id="text_60">
      <!-- 300 -->
      <g transform="translate(433.309091 376.907951) scale(0.1 -0.1)">
       <use xlink:href="#DejaVuSans-33"/>
       <use xlink:href="#DejaVuSans-30" x="63.623047"/>
       <use xlink:href="#DejaVuSans-30" x="127.246094"/>
      </g>
     </g>
    </g>
    <g id="ytick_27">
     <g id="line2d_51">
      <g>
       <use xlink:href="#m1f23ba5ed3" x="459.396591" y="350.573521" style="stroke: #000000; stroke-width: 0.8"/>
      </g>
     </g>
     <g id="text_61">
      <!-- 350 -->
      <g transform="translate(433.309091 354.37274) scale(0.1 -0.1)">
       <use xlink:href="#DejaVuSans-33"/>
       <use xlink:href="#DejaVuSans-35" x="63.623047"/>
       <use xlink:href="#DejaVuSans-30" x="127.246094"/>
      </g>
     </g>
    </g>
    <g id="ytick_28">
     <g id="line2d_52">
      <g>
       <use xlink:href="#m1f23ba5ed3" x="459.396591" y="328.03831" style="stroke: #000000; stroke-width: 0.8"/>
      </g>
     </g>
     <g id="text_62">
      <!-- 400 -->
      <g transform="translate(433.309091 331.837529) scale(0.1 -0.1)">
       <use xlink:href="#DejaVuSans-34"/>
       <use xlink:href="#DejaVuSans-30" x="63.623047"/>
       <use xlink:href="#DejaVuSans-30" x="127.246094"/>
      </g>
     </g>
    </g>
   </g>
   <g id="patch_149">
    <path d="M 459.396591 508.32 
L 459.396591 306.72 
" style="fill: none; stroke: #000000; stroke-width: 0.8; stroke-linejoin: miter; stroke-linecap: square"/>
   </g>
   <g id="patch_150">
    <path d="M 814.4875 508.32 
L 814.4875 306.72 
" style="fill: none; stroke: #000000; stroke-width: 0.8; stroke-linejoin: miter; stroke-linecap: square"/>
   </g>
   <g id="patch_151">
    <path d="M 459.396591 508.32 
L 814.4875 508.32 
" style="fill: none; stroke: #000000; stroke-width: 0.8; stroke-linejoin: miter; stroke-linecap: square"/>
   </g>
   <g id="patch_152">
    <path d="M 459.396591 306.72 
L 814.4875 306.72 
" style="fill: none; stroke: #000000; stroke-width: 0.8; stroke-linejoin: miter; stroke-linecap: square"/>
   </g>
   <g id="text_63">
    <!-- median = 0.634 -->
    <g transform="translate(690.271365 364.094648) scale(0.14 -0.14)">
     <use xlink:href="#DejaVuSans-6d"/>
     <use xlink:href="#DejaVuSans-65" x="97.412109"/>
     <use xlink:href="#DejaVuSans-64" x="158.935547"/>
     <use xlink:href="#DejaVuSans-69" x="222.412109"/>
     <use xlink:href="#DejaVuSans-61" x="250.195312"/>
     <use xlink:href="#DejaVuSans-6e" x="311.474609"/>
     <use xlink:href="#DejaVuSans-20" x="374.853516"/>
     <use xlink:href="#DejaVuSans-3d" x="406.640625"/>
     <use xlink:href="#DejaVuSans-20" x="490.429688"/>
     <use xlink:href="#DejaVuSans-30" x="522.216797"/>
     <use xlink:href="#DejaVuSans-2e" x="585.839844"/>
     <use xlink:href="#DejaVuSans-36" x="617.626953"/>
     <use xlink:href="#DejaVuSans-33" x="681.25"/>
     <use xlink:href="#DejaVuSans-34" x="744.873047"/>
    </g>
   </g>
   <g id="legend_4">
    <g id="patch_153">
     <path d="M 687.032812 338.85875 
L 804.6875 338.85875 
Q 807.4875 338.85875 807.4875 336.05875 
L 807.4875 316.52 
Q 807.4875 313.72 804.6875 313.72 
L 687.032812 313.72 
Q 684.232812 313.72 684.232812 316.52 
L 684.232812 336.05875 
Q 684.232812 338.85875 687.032812 338.85875 
z
" style="fill: #ffffff; opacity: 0.8; stroke: #cccccc; stroke-linejoin: miter"/>
    </g>
    <g id="patch_154">
     <path d="M 689.832812 329.957812 
L 717.832812 329.957812 
L 717.832812 320.157812 
L 689.832812 320.157812 
z
" style="fill: #6d86ad; opacity: 0.6"/>
    </g>
    <g id="text_64">
     <!-- maxCL_bp -->
     <g transform="translate(729.032812 329.957812) scale(0.14 -0.14)">
      <use xlink:href="#DejaVuSans-6d"/>
      <use xlink:href="#DejaVuSans-61" x="97.412109"/>
      <use xlink:href="#DejaVuSans-78" x="158.691406"/>
      <use xlink:href="#DejaVuSans-43" x="217.871094"/>
      <use xlink:href="#DejaVuSans-4c" x="287.695312"/>
      <use xlink:href="#DejaVuSans-5f" x="343.408203"/>
      <use xlink:href="#DejaVuSans-62" x="393.408203"/>
      <use xlink:href="#DejaVuSans-70" x="456.884766"/>
     </g>
    </g>
   </g>
  </g>
  <g id="text_65">
   <!-- CONTIGS STATS -->
   <g transform="translate(348.19 19.3575) scale(0.16 -0.16)">
    <defs>
     <path id="DejaVuSans-4f" d="M 2522 4238 
Q 1834 4238 1429 3725 
Q 1025 3213 1025 2328 
Q 1025 1447 1429 934 
Q 1834 422 2522 422 
Q 3209 422 3611 934 
Q 4013 1447 4013 2328 
Q 4013 3213 3611 3725 
Q 3209 4238 2522 4238 
z
M 2522 4750 
Q 3503 4750 4090 4092 
Q 4678 3434 4678 2328 
Q 4678 1225 4090 567 
Q 3503 -91 2522 -91 
Q 1538 -91 948 565 
Q 359 1222 359 2328 
Q 359 3434 948 4092 
Q 1538 4750 2522 4750 
z
" transform="scale(0.015625)"/>
     <path id="DejaVuSans-54" d="M -19 4666 
L 3928 4666 
L 3928 4134 
L 2272 4134 
L 2272 0 
L 1638 0 
L 1638 4134 
L -19 4134 
L -19 4666 
z
" transform="scale(0.015625)"/>
     <path id="DejaVuSans-49" d="M 628 4666 
L 1259 4666 
L 1259 0 
L 628 0 
L 628 4666 
z
" transform="scale(0.015625)"/>
     <path id="DejaVuSans-47" d="M 3809 666 
L 3809 1919 
L 2778 1919 
L 2778 2438 
L 4434 2438 
L 4434 434 
Q 4069 175 3628 42 
Q 3188 -91 2688 -91 
Q 1594 -91 976 548 
Q 359 1188 359 2328 
Q 359 3472 976 4111 
Q 1594 4750 2688 4750 
Q 3144 4750 3555 4637 
Q 3966 4525 4313 4306 
L 4313 3634 
Q 3963 3931 3569 4081 
Q 3175 4231 2741 4231 
Q 1884 4231 1454 3753 
Q 1025 3275 1025 2328 
Q 1025 1384 1454 906 
Q 1884 428 2741 428 
Q 3075 428 3337 486 
Q 3600 544 3809 666 
z
" transform="scale(0.015625)"/>
     <path id="DejaVuSans-53" d="M 3425 4513 
L 3425 3897 
Q 3066 4069 2747 4153 
Q 2428 4238 2131 4238 
Q 1616 4238 1336 4038 
Q 1056 3838 1056 3469 
Q 1056 3159 1242 3001 
Q 1428 2844 1947 2747 
L 2328 2669 
Q 3034 2534 3370 2195 
Q 3706 1856 3706 1288 
Q 3706 609 3251 259 
Q 2797 -91 1919 -91 
Q 1588 -91 1214 -16 
Q 841 59 441 206 
L 441 856 
Q 825 641 1194 531 
Q 1563 422 1919 422 
Q 2459 422 2753 634 
Q 3047 847 3047 1241 
Q 3047 1584 2836 1778 
Q 2625 1972 2144 2069 
L 1759 2144 
Q 1053 2284 737 2584 
Q 422 2884 422 3419 
Q 422 4038 858 4394 
Q 1294 4750 2059 4750 
Q 2388 4750 2728 4690 
Q 3069 4631 3425 4513 
z
" transform="scale(0.015625)"/>
    </defs>
    <use xlink:href="#DejaVuSans-43"/>
    <use xlink:href="#DejaVuSans-4f" x="69.824219"/>
    <use xlink:href="#DejaVuSans-4e" x="148.535156"/>
    <use xlink:href="#DejaVuSans-54" x="223.339844"/>
    <use xlink:href="#DejaVuSans-49" x="284.423828"/>
    <use xlink:href="#DejaVuSans-47" x="313.916016"/>
    <use xlink:href="#DejaVuSans-53" x="391.40625"/>
    <use xlink:href="#DejaVuSans-20" x="454.882812"/>
    <use xlink:href="#DejaVuSans-53" x="486.669922"/>
    <use xlink:href="#DejaVuSans-54" x="550.146484"/>
    <use xlink:href="#DejaVuSans-41" x="603.480469"/>
    <use xlink:href="#DejaVuSans-54" x="664.138672"/>
    <use xlink:href="#DejaVuSans-53" x="725.222656"/>
   </g>
  </g>
 </g>
 <defs>
  <clipPath id="p5720f52d58">
   <rect x="33.2875" y="64.8" width="355.090909" height="201.6"/>
  </clipPath>
  <clipPath id="p8e62352769">
   <rect x="459.396591" y="64.8" width="355.090909" height="201.6"/>
  </clipPath>
  <clipPath id="p067a0e4be7">
   <rect x="33.2875" y="306.72" width="355.090909" height="201.6"/>
  </clipPath>
  <clipPath id="p4246080f5b">
   <rect x="459.396591" y="306.72" width="355.090909" height="201.6"/>
  </clipPath>
 </defs>
</svg>
